<mxfile host="Electron" modified="2025-05-28T16:47:50.524Z" agent="Mozilla/5.0 (Windows NT 10.0; Win64; x64) AppleWebKit/537.36 (KHTML, like Gecko) draw.io/22.0.0 Chrome/114.0.5735.289 Electron/25.8.3 Safari/537.36" etag="vc7Genokh_yZMoJirDx0" version="22.0.0" type="device">
  <diagram name="PÃ¡gina-1" id="D68TtNsnW2LJjyAZXdDu">
    <mxGraphModel dx="1668" dy="1386" grid="1" gridSize="10" guides="1" tooltips="1" connect="1" arrows="1" fold="1" page="0" pageScale="1" pageWidth="827" pageHeight="1169" background="#FFFFFF" math="0" shadow="0">
      <root>
        <mxCell id="0" />
        <mxCell id="1" parent="0" />
        <mxCell id="8G4y-F73RXwa5Z3J1X30-61" value="CATEGORY" style="rounded=0;whiteSpace=wrap;html=1;fillColor=#f5f5f5;fontColor=#000000;strokeColor=#1A1A1A;align=center;" parent="1" vertex="1">
          <mxGeometry x="1203.76" y="170.44" width="160" height="100" as="geometry" />
        </mxCell>
        <mxCell id="8G4y-F73RXwa5Z3J1X30-62" value="" style="ellipse;whiteSpace=wrap;html=1;align=left;strokeColor=#1A1A1A;" parent="1" vertex="1">
          <mxGeometry x="1218.76" y="307.24" width="10" height="10" as="geometry" />
        </mxCell>
        <mxCell id="8G4y-F73RXwa5Z3J1X30-63" style="edgeStyle=none;curved=1;rounded=0;orthogonalLoop=1;jettySize=auto;html=1;entryX=0.126;entryY=0.997;entryDx=0;entryDy=0;endArrow=none;startSize=14;endSize=14;sourcePerimeterSpacing=8;targetPerimeterSpacing=8;strokeColor=#1A1A1A;endFill=0;fontColor=#000000;align=center;entryPerimeter=0;exitX=0.5;exitY=0;exitDx=0;exitDy=0;" parent="1" source="8G4y-F73RXwa5Z3J1X30-62" target="8G4y-F73RXwa5Z3J1X30-61" edge="1">
          <mxGeometry relative="1" as="geometry">
            <mxPoint x="1223.76" y="327.24" as="sourcePoint" />
            <mxPoint x="1223.6" y="227.07999999999998" as="targetPoint" />
          </mxGeometry>
        </mxCell>
        <mxCell id="8G4y-F73RXwa5Z3J1X30-64" value="id" style="text;strokeColor=none;fillColor=none;html=1;align=left;verticalAlign=middle;whiteSpace=wrap;rounded=0;fontColor=#000000;" parent="1" vertex="1">
          <mxGeometry x="1215.67" y="320" width="16.19" height="9.12" as="geometry" />
        </mxCell>
        <mxCell id="8G4y-F73RXwa5Z3J1X30-66" value="name" style="text;strokeColor=none;fillColor=none;html=1;align=center;verticalAlign=middle;whiteSpace=wrap;rounded=0;fontColor=#000000;" parent="1" vertex="1">
          <mxGeometry x="1262.57" y="320" width="42.38" height="9.12" as="geometry" />
        </mxCell>
        <mxCell id="8G4y-F73RXwa5Z3J1X30-69" value="" style="ellipse;whiteSpace=wrap;html=1;align=left;strokeColor=#1A1A1A;fillColor=#f5f5f5;fontColor=#333333;" parent="1" vertex="1">
          <mxGeometry x="1278.76" y="307.24" width="10" height="10" as="geometry" />
        </mxCell>
        <mxCell id="8G4y-F73RXwa5Z3J1X30-70" style="edgeStyle=none;curved=1;rounded=0;orthogonalLoop=1;jettySize=auto;html=1;entryX=0.5;entryY=1;entryDx=0;entryDy=0;endArrow=none;startSize=14;endSize=14;sourcePerimeterSpacing=8;targetPerimeterSpacing=8;strokeColor=#1A1A1A;endFill=0;fontColor=#000000;align=center;fillColor=#f5f5f5;exitX=0.5;exitY=0;exitDx=0;exitDy=0;" parent="1" source="8G4y-F73RXwa5Z3J1X30-69" target="8G4y-F73RXwa5Z3J1X30-61" edge="1">
          <mxGeometry relative="1" as="geometry">
            <mxPoint x="1293.33" y="371" as="sourcePoint" />
            <mxPoint x="1293.52" y="331" as="targetPoint" />
          </mxGeometry>
        </mxCell>
        <mxCell id="8G4y-F73RXwa5Z3J1X30-74" value="description" style="text;strokeColor=none;fillColor=none;html=1;align=center;verticalAlign=middle;whiteSpace=wrap;rounded=0;fontColor=#000000;" parent="1" vertex="1">
          <mxGeometry x="1330.9" y="319.12" width="42.38" height="9.12" as="geometry" />
        </mxCell>
        <mxCell id="8G4y-F73RXwa5Z3J1X30-75" value="" style="ellipse;whiteSpace=wrap;html=1;align=left;strokeColor=#1A1A1A;fillColor=#f5f5f5;fontColor=#333333;" parent="1" vertex="1">
          <mxGeometry x="1347.09" y="307.24" width="10" height="10" as="geometry" />
        </mxCell>
        <mxCell id="8G4y-F73RXwa5Z3J1X30-76" style="edgeStyle=none;curved=1;rounded=0;orthogonalLoop=1;jettySize=auto;html=1;entryX=0.928;entryY=0.992;entryDx=0;entryDy=0;endArrow=none;startSize=14;endSize=14;sourcePerimeterSpacing=8;targetPerimeterSpacing=8;strokeColor=#1A1A1A;endFill=0;fontColor=#000000;align=center;entryPerimeter=0;exitX=0.5;exitY=0;exitDx=0;exitDy=0;" parent="1" source="8G4y-F73RXwa5Z3J1X30-75" target="8G4y-F73RXwa5Z3J1X30-61" edge="1">
          <mxGeometry relative="1" as="geometry">
            <mxPoint x="1352.09" y="319.24" as="sourcePoint" />
            <mxPoint x="1351.55" y="217.77999999999997" as="targetPoint" />
          </mxGeometry>
        </mxCell>
        <mxCell id="6UiGl61B0s6jCJvGBx9i-12" value="PRIORITY" style="rounded=0;whiteSpace=wrap;html=1;fillColor=#f5f5f5;fontColor=#000000;strokeColor=#1A1A1A;align=center;" parent="1" vertex="1">
          <mxGeometry x="1202.57" y="38.680000000000014" width="160" height="100" as="geometry" />
        </mxCell>
        <mxCell id="6UiGl61B0s6jCJvGBx9i-13" value="" style="ellipse;whiteSpace=wrap;html=1;align=left;strokeColor=#1A1A1A;" parent="1" vertex="1">
          <mxGeometry x="1211.1399999999999" y="-2.63999999999999" width="10" height="10" as="geometry" />
        </mxCell>
        <mxCell id="6UiGl61B0s6jCJvGBx9i-14" style="edgeStyle=none;curved=1;rounded=0;orthogonalLoop=1;jettySize=auto;html=1;endArrow=none;startSize=14;endSize=14;sourcePerimeterSpacing=8;targetPerimeterSpacing=8;strokeColor=#1A1A1A;endFill=0;fontColor=#000000;align=center;entryX=0.5;entryY=0;entryDx=0;entryDy=0;exitX=0.5;exitY=1;exitDx=0;exitDy=0;" parent="1" source="6UiGl61B0s6jCJvGBx9i-13" edge="1">
          <mxGeometry relative="1" as="geometry">
            <mxPoint x="1097.3" y="66.92000000000002" as="sourcePoint" />
            <mxPoint x="1216.1399999999999" y="38.67999999999996" as="targetPoint" />
          </mxGeometry>
        </mxCell>
        <mxCell id="6UiGl61B0s6jCJvGBx9i-15" value="id" style="text;strokeColor=none;fillColor=none;html=1;align=center;verticalAlign=middle;whiteSpace=wrap;rounded=0;fontColor=#000000;" parent="1" vertex="1">
          <mxGeometry x="1194.9499999999998" y="-20.000000000000004" width="42.38" height="9.12" as="geometry" />
        </mxCell>
        <mxCell id="6UiGl61B0s6jCJvGBx9i-16" value="" style="ellipse;whiteSpace=wrap;html=1;align=left;strokeColor=#1A1A1A;fillColor=#f5f5f5;fontColor=#333333;" parent="1" vertex="1">
          <mxGeometry x="1348.76" y="-2.6399999999999935" width="10" height="10" as="geometry" />
        </mxCell>
        <mxCell id="6UiGl61B0s6jCJvGBx9i-17" style="edgeStyle=none;curved=1;rounded=0;orthogonalLoop=1;jettySize=auto;html=1;endArrow=none;startSize=14;endSize=14;sourcePerimeterSpacing=8;targetPerimeterSpacing=8;strokeColor=#1A1A1A;endFill=0;fontColor=#000000;align=center;entryX=0.148;entryY=0;entryDx=0;entryDy=0;entryPerimeter=0;exitX=0.5;exitY=1;exitDx=0;exitDy=0;" parent="1" source="6UiGl61B0s6jCJvGBx9i-16" edge="1">
          <mxGeometry relative="1" as="geometry">
            <mxPoint x="1353.7299999999998" y="-2.199999999999992" as="sourcePoint" />
            <mxPoint x="1353.9499999999998" y="38.680000000000014" as="targetPoint" />
          </mxGeometry>
        </mxCell>
        <mxCell id="6UiGl61B0s6jCJvGBx9i-18" value="description" style="text;strokeColor=none;fillColor=none;html=1;align=center;verticalAlign=middle;whiteSpace=wrap;rounded=0;fontColor=#000000;" parent="1" vertex="1">
          <mxGeometry x="1332.57" y="-20.000000000000004" width="42.38" height="9.12" as="geometry" />
        </mxCell>
        <mxCell id="6UiGl61B0s6jCJvGBx9i-19" value="" style="ellipse;whiteSpace=wrap;html=1;align=left;strokeColor=#1A1A1A;fillColor=#f5f5f5;fontColor=#333333;" parent="1" vertex="1">
          <mxGeometry x="1278.76" y="-2.63999999999999" width="10" height="10" as="geometry" />
        </mxCell>
        <mxCell id="6UiGl61B0s6jCJvGBx9i-20" style="edgeStyle=none;curved=1;rounded=0;orthogonalLoop=1;jettySize=auto;html=1;endArrow=none;startSize=14;endSize=14;sourcePerimeterSpacing=8;targetPerimeterSpacing=8;strokeColor=#1A1A1A;endFill=0;fontColor=#000000;align=center;entryX=0.148;entryY=0;entryDx=0;entryDy=0;entryPerimeter=0;exitX=0.5;exitY=1;exitDx=0;exitDy=0;" parent="1" source="6UiGl61B0s6jCJvGBx9i-19" edge="1">
          <mxGeometry relative="1" as="geometry">
            <mxPoint x="1283.7299999999998" y="-2.1999999999999886" as="sourcePoint" />
            <mxPoint x="1283.95" y="38.680000000000014" as="targetPoint" />
          </mxGeometry>
        </mxCell>
        <mxCell id="6UiGl61B0s6jCJvGBx9i-21" value="name" style="text;strokeColor=none;fillColor=none;html=1;align=center;verticalAlign=middle;whiteSpace=wrap;rounded=0;fontColor=#000000;" parent="1" vertex="1">
          <mxGeometry x="1262.57" y="-19.999999999999996" width="42.38" height="9.12" as="geometry" />
        </mxCell>
        <mxCell id="6UiGl61B0s6jCJvGBx9i-22" value="TICKET" style="rounded=0;whiteSpace=wrap;html=1;fillColor=#f5f5f5;fontColor=#000000;strokeColor=#1A1A1A;align=center;" parent="1" vertex="1">
          <mxGeometry x="846.26" y="109" width="160" height="100" as="geometry" />
        </mxCell>
        <mxCell id="6UiGl61B0s6jCJvGBx9i-24" value="PERMISSION" style="rounded=0;whiteSpace=wrap;html=1;fillColor=#f5f5f5;fontColor=#000000;strokeColor=#1A1A1A;align=center;" parent="1" vertex="1">
          <mxGeometry x="165" y="60.76" width="160" height="100" as="geometry" />
        </mxCell>
        <mxCell id="6UiGl61B0s6jCJvGBx9i-25" value="" style="ellipse;whiteSpace=wrap;html=1;align=left;strokeColor=#1A1A1A;" parent="1" vertex="1">
          <mxGeometry x="180" y="197.56" width="10" height="10" as="geometry" />
        </mxCell>
        <mxCell id="6UiGl61B0s6jCJvGBx9i-26" style="edgeStyle=none;curved=1;rounded=0;orthogonalLoop=1;jettySize=auto;html=1;entryX=0.126;entryY=0.997;entryDx=0;entryDy=0;endArrow=none;startSize=14;endSize=14;sourcePerimeterSpacing=8;targetPerimeterSpacing=8;strokeColor=#1A1A1A;endFill=0;fontColor=#000000;align=center;entryPerimeter=0;exitX=0.5;exitY=0;exitDx=0;exitDy=0;" parent="1" source="6UiGl61B0s6jCJvGBx9i-25" target="6UiGl61B0s6jCJvGBx9i-24" edge="1">
          <mxGeometry relative="1" as="geometry">
            <mxPoint x="185" y="217.56" as="sourcePoint" />
            <mxPoint x="184.83999999999992" y="117.39999999999999" as="targetPoint" />
          </mxGeometry>
        </mxCell>
        <mxCell id="6UiGl61B0s6jCJvGBx9i-27" value="id" style="text;strokeColor=none;fillColor=none;html=1;align=left;verticalAlign=middle;whiteSpace=wrap;rounded=0;fontColor=#000000;" parent="1" vertex="1">
          <mxGeometry x="176.91000000000008" y="210.32" width="16.19" height="9.12" as="geometry" />
        </mxCell>
        <mxCell id="6UiGl61B0s6jCJvGBx9i-28" value="name" style="text;strokeColor=none;fillColor=none;html=1;align=center;verticalAlign=middle;whiteSpace=wrap;rounded=0;fontColor=#000000;" parent="1" vertex="1">
          <mxGeometry x="223.80999999999995" y="210.32" width="42.38" height="9.12" as="geometry" />
        </mxCell>
        <mxCell id="6UiGl61B0s6jCJvGBx9i-29" value="" style="ellipse;whiteSpace=wrap;html=1;align=left;strokeColor=#1A1A1A;fillColor=#f5f5f5;fontColor=#333333;" parent="1" vertex="1">
          <mxGeometry x="240" y="197.56" width="10" height="10" as="geometry" />
        </mxCell>
        <mxCell id="6UiGl61B0s6jCJvGBx9i-30" style="edgeStyle=none;curved=1;rounded=0;orthogonalLoop=1;jettySize=auto;html=1;entryX=0.5;entryY=1;entryDx=0;entryDy=0;endArrow=none;startSize=14;endSize=14;sourcePerimeterSpacing=8;targetPerimeterSpacing=8;strokeColor=#1A1A1A;endFill=0;fontColor=#000000;align=center;fillColor=#f5f5f5;exitX=0.5;exitY=0;exitDx=0;exitDy=0;" parent="1" source="6UiGl61B0s6jCJvGBx9i-29" target="6UiGl61B0s6jCJvGBx9i-24" edge="1">
          <mxGeometry relative="1" as="geometry">
            <mxPoint x="254.56999999999994" y="261.32" as="sourcePoint" />
            <mxPoint x="254.76" y="221.32" as="targetPoint" />
          </mxGeometry>
        </mxCell>
        <mxCell id="6UiGl61B0s6jCJvGBx9i-31" value="description" style="text;strokeColor=none;fillColor=none;html=1;align=center;verticalAlign=middle;whiteSpace=wrap;rounded=0;fontColor=#000000;" parent="1" vertex="1">
          <mxGeometry x="292.1400000000001" y="209.44" width="42.38" height="9.12" as="geometry" />
        </mxCell>
        <mxCell id="6UiGl61B0s6jCJvGBx9i-32" value="" style="ellipse;whiteSpace=wrap;html=1;align=left;strokeColor=#1A1A1A;fillColor=#f5f5f5;fontColor=#333333;" parent="1" vertex="1">
          <mxGeometry x="308.3299999999999" y="197.56" width="10" height="10" as="geometry" />
        </mxCell>
        <mxCell id="6UiGl61B0s6jCJvGBx9i-33" style="edgeStyle=none;curved=1;rounded=0;orthogonalLoop=1;jettySize=auto;html=1;entryX=0.928;entryY=0.992;entryDx=0;entryDy=0;endArrow=none;startSize=14;endSize=14;sourcePerimeterSpacing=8;targetPerimeterSpacing=8;strokeColor=#1A1A1A;endFill=0;fontColor=#000000;align=center;entryPerimeter=0;exitX=0.5;exitY=0;exitDx=0;exitDy=0;" parent="1" source="6UiGl61B0s6jCJvGBx9i-32" target="6UiGl61B0s6jCJvGBx9i-24" edge="1">
          <mxGeometry relative="1" as="geometry">
            <mxPoint x="313.3299999999999" y="209.56" as="sourcePoint" />
            <mxPoint x="312.78999999999996" y="108.09999999999998" as="targetPoint" />
          </mxGeometry>
        </mxCell>
        <mxCell id="6UiGl61B0s6jCJvGBx9i-35" value="USER" style="rounded=0;whiteSpace=wrap;html=1;fillColor=#f5f5f5;fontColor=#000000;strokeColor=#1A1A1A;align=center;" parent="1" vertex="1">
          <mxGeometry x="689.9999999999999" y="-250.44" width="160" height="100" as="geometry" />
        </mxCell>
        <mxCell id="6UiGl61B0s6jCJvGBx9i-38" value="ROLE" style="rounded=0;whiteSpace=wrap;html=1;fillColor=#f5f5f5;fontColor=#000000;strokeColor=#1A1A1A;align=center;" parent="1" vertex="1">
          <mxGeometry x="357.6199999999999" y="-81.32" width="160" height="100" as="geometry" />
        </mxCell>
        <mxCell id="6UiGl61B0s6jCJvGBx9i-39" value="" style="ellipse;whiteSpace=wrap;html=1;align=left;strokeColor=#1A1A1A;" parent="1" vertex="1">
          <mxGeometry x="366.1899999999998" y="-122.63999999999999" width="10" height="10" as="geometry" />
        </mxCell>
        <mxCell id="6UiGl61B0s6jCJvGBx9i-40" style="edgeStyle=none;curved=1;rounded=0;orthogonalLoop=1;jettySize=auto;html=1;endArrow=none;startSize=14;endSize=14;sourcePerimeterSpacing=8;targetPerimeterSpacing=8;strokeColor=#1A1A1A;endFill=0;fontColor=#000000;align=center;entryX=0.5;entryY=0;entryDx=0;entryDy=0;exitX=0.5;exitY=1;exitDx=0;exitDy=0;" parent="1" source="6UiGl61B0s6jCJvGBx9i-39" edge="1">
          <mxGeometry relative="1" as="geometry">
            <mxPoint x="252.3499999999999" y="-53.079999999999984" as="sourcePoint" />
            <mxPoint x="371.1899999999998" y="-81.32000000000005" as="targetPoint" />
          </mxGeometry>
        </mxCell>
        <mxCell id="6UiGl61B0s6jCJvGBx9i-41" value="id" style="text;strokeColor=none;fillColor=none;html=1;align=center;verticalAlign=middle;whiteSpace=wrap;rounded=0;fontColor=#000000;" parent="1" vertex="1">
          <mxGeometry x="349.9999999999998" y="-140" width="42.38" height="9.12" as="geometry" />
        </mxCell>
        <mxCell id="6UiGl61B0s6jCJvGBx9i-42" value="" style="ellipse;whiteSpace=wrap;html=1;align=left;strokeColor=#1A1A1A;fillColor=#f5f5f5;fontColor=#333333;" parent="1" vertex="1">
          <mxGeometry x="503.80999999999995" y="-122.63999999999999" width="10" height="10" as="geometry" />
        </mxCell>
        <mxCell id="6UiGl61B0s6jCJvGBx9i-43" style="edgeStyle=none;curved=1;rounded=0;orthogonalLoop=1;jettySize=auto;html=1;endArrow=none;startSize=14;endSize=14;sourcePerimeterSpacing=8;targetPerimeterSpacing=8;strokeColor=#1A1A1A;endFill=0;fontColor=#000000;align=center;entryX=0.148;entryY=0;entryDx=0;entryDy=0;entryPerimeter=0;exitX=0.5;exitY=1;exitDx=0;exitDy=0;" parent="1" source="6UiGl61B0s6jCJvGBx9i-42" edge="1">
          <mxGeometry relative="1" as="geometry">
            <mxPoint x="508.77999999999975" y="-122.19999999999999" as="sourcePoint" />
            <mxPoint x="508.9999999999998" y="-81.32" as="targetPoint" />
          </mxGeometry>
        </mxCell>
        <mxCell id="6UiGl61B0s6jCJvGBx9i-44" value="description" style="text;strokeColor=none;fillColor=none;html=1;align=center;verticalAlign=middle;whiteSpace=wrap;rounded=0;fontColor=#000000;" parent="1" vertex="1">
          <mxGeometry x="487.6199999999999" y="-140" width="42.38" height="9.12" as="geometry" />
        </mxCell>
        <mxCell id="6UiGl61B0s6jCJvGBx9i-45" value="" style="ellipse;whiteSpace=wrap;html=1;align=left;strokeColor=#1A1A1A;fillColor=#f5f5f5;fontColor=#333333;" parent="1" vertex="1">
          <mxGeometry x="433.80999999999995" y="-122.63999999999999" width="10" height="10" as="geometry" />
        </mxCell>
        <mxCell id="6UiGl61B0s6jCJvGBx9i-46" style="edgeStyle=none;curved=1;rounded=0;orthogonalLoop=1;jettySize=auto;html=1;endArrow=none;startSize=14;endSize=14;sourcePerimeterSpacing=8;targetPerimeterSpacing=8;strokeColor=#1A1A1A;endFill=0;fontColor=#000000;align=center;entryX=0.148;entryY=0;entryDx=0;entryDy=0;entryPerimeter=0;exitX=0.5;exitY=1;exitDx=0;exitDy=0;" parent="1" source="6UiGl61B0s6jCJvGBx9i-45" edge="1">
          <mxGeometry relative="1" as="geometry">
            <mxPoint x="438.77999999999975" y="-122.19999999999999" as="sourcePoint" />
            <mxPoint x="439" y="-81.32" as="targetPoint" />
          </mxGeometry>
        </mxCell>
        <mxCell id="6UiGl61B0s6jCJvGBx9i-47" value="name" style="text;strokeColor=none;fillColor=none;html=1;align=center;verticalAlign=middle;whiteSpace=wrap;rounded=0;fontColor=#000000;" parent="1" vertex="1">
          <mxGeometry x="417.6199999999999" y="-140" width="42.38" height="9.12" as="geometry" />
        </mxCell>
        <mxCell id="6UiGl61B0s6jCJvGBx9i-48" value="PLAN" style="rounded=0;whiteSpace=wrap;html=1;fillColor=#f5f5f5;fontColor=#000000;strokeColor=#1A1A1A;align=center;" parent="1" vertex="1">
          <mxGeometry x="137.6199999999999" y="-269.62" width="160" height="100" as="geometry" />
        </mxCell>
        <mxCell id="6UiGl61B0s6jCJvGBx9i-49" value="" style="ellipse;whiteSpace=wrap;html=1;align=left;strokeColor=#1A1A1A;" parent="1" vertex="1">
          <mxGeometry x="146.18999999999983" y="-310.94" width="10" height="10" as="geometry" />
        </mxCell>
        <mxCell id="6UiGl61B0s6jCJvGBx9i-50" style="edgeStyle=none;curved=1;rounded=0;orthogonalLoop=1;jettySize=auto;html=1;endArrow=none;startSize=14;endSize=14;sourcePerimeterSpacing=8;targetPerimeterSpacing=8;strokeColor=#1A1A1A;endFill=0;fontColor=#000000;align=center;entryX=0.5;entryY=0;entryDx=0;entryDy=0;exitX=0.5;exitY=1;exitDx=0;exitDy=0;" parent="1" source="6UiGl61B0s6jCJvGBx9i-49" edge="1">
          <mxGeometry relative="1" as="geometry">
            <mxPoint x="32.34999999999991" y="-241.38" as="sourcePoint" />
            <mxPoint x="151.18999999999983" y="-269.62000000000006" as="targetPoint" />
          </mxGeometry>
        </mxCell>
        <mxCell id="6UiGl61B0s6jCJvGBx9i-51" value="id" style="text;strokeColor=none;fillColor=none;html=1;align=center;verticalAlign=middle;whiteSpace=wrap;rounded=0;fontColor=#000000;" parent="1" vertex="1">
          <mxGeometry x="129.99999999999977" y="-328.3" width="42.38" height="9.12" as="geometry" />
        </mxCell>
        <mxCell id="6UiGl61B0s6jCJvGBx9i-52" value="" style="ellipse;whiteSpace=wrap;html=1;align=left;strokeColor=#1A1A1A;fillColor=#f5f5f5;fontColor=#333333;" parent="1" vertex="1">
          <mxGeometry x="283.80999999999995" y="-310.94" width="10" height="10" as="geometry" />
        </mxCell>
        <mxCell id="6UiGl61B0s6jCJvGBx9i-53" style="edgeStyle=none;curved=1;rounded=0;orthogonalLoop=1;jettySize=auto;html=1;endArrow=none;startSize=14;endSize=14;sourcePerimeterSpacing=8;targetPerimeterSpacing=8;strokeColor=#1A1A1A;endFill=0;fontColor=#000000;align=center;entryX=0.148;entryY=0;entryDx=0;entryDy=0;entryPerimeter=0;exitX=0.5;exitY=1;exitDx=0;exitDy=0;" parent="1" source="6UiGl61B0s6jCJvGBx9i-52" edge="1">
          <mxGeometry relative="1" as="geometry">
            <mxPoint x="288.77999999999975" y="-310.5" as="sourcePoint" />
            <mxPoint x="288.9999999999998" y="-269.62" as="targetPoint" />
          </mxGeometry>
        </mxCell>
        <mxCell id="6UiGl61B0s6jCJvGBx9i-54" value="description" style="text;strokeColor=none;fillColor=none;html=1;align=center;verticalAlign=middle;whiteSpace=wrap;rounded=0;fontColor=#000000;" parent="1" vertex="1">
          <mxGeometry x="267.6199999999999" y="-328.3" width="42.38" height="9.12" as="geometry" />
        </mxCell>
        <mxCell id="6UiGl61B0s6jCJvGBx9i-55" value="" style="ellipse;whiteSpace=wrap;html=1;align=left;strokeColor=#1A1A1A;fillColor=#f5f5f5;fontColor=#333333;" parent="1" vertex="1">
          <mxGeometry x="213.80999999999995" y="-310.94" width="10" height="10" as="geometry" />
        </mxCell>
        <mxCell id="6UiGl61B0s6jCJvGBx9i-56" style="edgeStyle=none;curved=1;rounded=0;orthogonalLoop=1;jettySize=auto;html=1;endArrow=none;startSize=14;endSize=14;sourcePerimeterSpacing=8;targetPerimeterSpacing=8;strokeColor=#1A1A1A;endFill=0;fontColor=#000000;align=center;entryX=0.148;entryY=0;entryDx=0;entryDy=0;entryPerimeter=0;exitX=0.5;exitY=1;exitDx=0;exitDy=0;" parent="1" source="6UiGl61B0s6jCJvGBx9i-55" edge="1">
          <mxGeometry relative="1" as="geometry">
            <mxPoint x="218.77999999999975" y="-310.5" as="sourcePoint" />
            <mxPoint x="219" y="-269.62" as="targetPoint" />
          </mxGeometry>
        </mxCell>
        <mxCell id="6UiGl61B0s6jCJvGBx9i-57" value="name" style="text;strokeColor=none;fillColor=none;html=1;align=center;verticalAlign=middle;whiteSpace=wrap;rounded=0;fontColor=#000000;" parent="1" vertex="1">
          <mxGeometry x="197.6199999999999" y="-328.3" width="42.38" height="9.12" as="geometry" />
        </mxCell>
        <mxCell id="6UiGl61B0s6jCJvGBx9i-73" value="" style="ellipse;whiteSpace=wrap;html=1;align=left;strokeColor=#1A1A1A;" parent="1" vertex="1">
          <mxGeometry x="696.3100000000001" y="-129.88000000000005" width="10" height="10" as="geometry" />
        </mxCell>
        <mxCell id="6UiGl61B0s6jCJvGBx9i-74" style="edgeStyle=none;curved=1;rounded=0;orthogonalLoop=1;jettySize=auto;html=1;entryX=0.124;entryY=0.994;entryDx=0;entryDy=0;endArrow=none;startSize=14;endSize=14;sourcePerimeterSpacing=8;targetPerimeterSpacing=8;strokeColor=#1A1A1A;endFill=0;fontColor=#000000;align=center;entryPerimeter=0;exitX=0.5;exitY=0;exitDx=0;exitDy=0;" parent="1" source="6UiGl61B0s6jCJvGBx9i-73" edge="1">
          <mxGeometry relative="1" as="geometry">
            <mxPoint x="701.3100000000001" y="-109.88000000000005" as="sourcePoint" />
            <mxPoint x="701.09" y="-150.44" as="targetPoint" />
          </mxGeometry>
        </mxCell>
        <mxCell id="6UiGl61B0s6jCJvGBx9i-75" value="id" style="text;strokeColor=none;fillColor=none;html=1;align=center;verticalAlign=middle;whiteSpace=wrap;rounded=0;fontColor=#000000;" parent="1" vertex="1">
          <mxGeometry x="681.3100000000001" y="-117.12000000000006" width="42.38" height="9.12" as="geometry" />
        </mxCell>
        <mxCell id="6UiGl61B0s6jCJvGBx9i-76" value="firstName" style="text;strokeColor=none;fillColor=none;html=1;align=center;verticalAlign=middle;whiteSpace=wrap;rounded=0;fontColor=#000000;" parent="1" vertex="1">
          <mxGeometry x="706.31" y="-79.68000000000005" width="42.38" height="9.12" as="geometry" />
        </mxCell>
        <mxCell id="6UiGl61B0s6jCJvGBx9i-77" value="middleName" style="text;strokeColor=none;fillColor=none;html=1;align=center;verticalAlign=middle;whiteSpace=wrap;rounded=0;fontColor=#000000;" parent="1" vertex="1">
          <mxGeometry x="745.84" y="-118.68000000000006" width="42.38" height="9.12" as="geometry" />
        </mxCell>
        <mxCell id="6UiGl61B0s6jCJvGBx9i-78" value="" style="ellipse;whiteSpace=wrap;html=1;align=left;strokeColor=#1A1A1A;fillColor=#f5f5f5;fontColor=#333333;" parent="1" vertex="1">
          <mxGeometry x="722.5" y="-97.80000000000005" width="10" height="10" as="geometry" />
        </mxCell>
        <mxCell id="6UiGl61B0s6jCJvGBx9i-79" style="edgeStyle=none;curved=1;rounded=0;orthogonalLoop=1;jettySize=auto;html=1;entryX=0.124;entryY=0.994;entryDx=0;entryDy=0;endArrow=none;startSize=14;endSize=14;sourcePerimeterSpacing=8;targetPerimeterSpacing=8;strokeColor=#000000;endFill=0;fontColor=#000000;align=center;entryPerimeter=0;exitX=0.5;exitY=0;exitDx=0;exitDy=0;" parent="1" source="6UiGl61B0s6jCJvGBx9i-78" edge="1">
          <mxGeometry relative="1" as="geometry">
            <mxPoint x="727.5" y="-109.44000000000005" as="sourcePoint" />
            <mxPoint x="727.5" y="-150.44000000000005" as="targetPoint" />
          </mxGeometry>
        </mxCell>
        <mxCell id="6UiGl61B0s6jCJvGBx9i-80" value="" style="ellipse;whiteSpace=wrap;html=1;align=left;strokeColor=#1A1A1A;fillColor=#f5f5f5;fontColor=#333333;" parent="1" vertex="1">
          <mxGeometry x="762.0300000000001" y="-130.44000000000005" width="10" height="10" as="geometry" />
        </mxCell>
        <mxCell id="6UiGl61B0s6jCJvGBx9i-81" style="edgeStyle=none;curved=1;rounded=0;orthogonalLoop=1;jettySize=auto;html=1;entryX=0.124;entryY=0.994;entryDx=0;entryDy=0;endArrow=none;startSize=14;endSize=14;sourcePerimeterSpacing=8;targetPerimeterSpacing=8;strokeColor=#1A1A1A;endFill=0;fontColor=#000000;align=center;entryPerimeter=0;fillColor=#f5f5f5;exitX=0.5;exitY=0;exitDx=0;exitDy=0;" parent="1" source="6UiGl61B0s6jCJvGBx9i-80" edge="1">
          <mxGeometry relative="1" as="geometry">
            <mxPoint x="766.84" y="-110.44000000000005" as="sourcePoint" />
            <mxPoint x="767.0300000000001" y="-150.44000000000005" as="targetPoint" />
          </mxGeometry>
        </mxCell>
        <mxCell id="6UiGl61B0s6jCJvGBx9i-82" value="lastName" style="text;strokeColor=none;fillColor=none;html=1;align=center;verticalAlign=middle;whiteSpace=wrap;rounded=0;fontColor=#000000;" parent="1" vertex="1">
          <mxGeometry x="782.2600000000001" y="-79.12000000000005" width="42.38" height="9.12" as="geometry" />
        </mxCell>
        <mxCell id="6UiGl61B0s6jCJvGBx9i-83" value="" style="ellipse;whiteSpace=wrap;html=1;align=left;strokeColor=#1A1A1A;fillColor=#f5f5f5;fontColor=#333333;" parent="1" vertex="1">
          <mxGeometry x="798.4500000000002" y="-97.24000000000005" width="10" height="10" as="geometry" />
        </mxCell>
        <mxCell id="6UiGl61B0s6jCJvGBx9i-84" style="edgeStyle=none;curved=1;rounded=0;orthogonalLoop=1;jettySize=auto;html=1;entryX=0.124;entryY=0.994;entryDx=0;entryDy=0;endArrow=none;startSize=14;endSize=14;sourcePerimeterSpacing=8;targetPerimeterSpacing=8;strokeColor=#000000;endFill=0;fontColor=#000000;align=center;entryPerimeter=0;exitX=0.5;exitY=0;exitDx=0;exitDy=0;" parent="1" source="6UiGl61B0s6jCJvGBx9i-83" edge="1">
          <mxGeometry relative="1" as="geometry">
            <mxPoint x="803" y="-100" as="sourcePoint" />
            <mxPoint x="803.4500000000002" y="-149.88000000000005" as="targetPoint" />
          </mxGeometry>
        </mxCell>
        <mxCell id="6UiGl61B0s6jCJvGBx9i-85" value="profilePictureUrl" style="text;strokeColor=none;fillColor=none;html=1;align=left;verticalAlign=middle;whiteSpace=wrap;rounded=0;fontColor=#000000;" parent="1" vertex="1">
          <mxGeometry x="818.4500000000002" y="-117.12000000000006" width="42.38" height="9.12" as="geometry" />
        </mxCell>
        <mxCell id="6UiGl61B0s6jCJvGBx9i-86" value="" style="ellipse;whiteSpace=wrap;html=1;align=left;strokeColor=#1A1A1A;fillColor=#f5f5f5;fontColor=#333333;" parent="1" vertex="1">
          <mxGeometry x="830.9499999999999" y="-129.88000000000005" width="10" height="10" as="geometry" />
        </mxCell>
        <mxCell id="6UiGl61B0s6jCJvGBx9i-87" style="edgeStyle=none;curved=1;rounded=0;orthogonalLoop=1;jettySize=auto;html=1;entryX=0.124;entryY=0.994;entryDx=0;entryDy=0;endArrow=none;startSize=14;endSize=14;sourcePerimeterSpacing=8;targetPerimeterSpacing=8;strokeColor=#1A1A1A;endFill=0;fontColor=#000000;align=center;entryPerimeter=0;fillColor=#f5f5f5;exitX=0.5;exitY=0;exitDx=0;exitDy=0;" parent="1" source="6UiGl61B0s6jCJvGBx9i-86" edge="1">
          <mxGeometry relative="1" as="geometry">
            <mxPoint x="835.7600000000001" y="-109.88000000000005" as="sourcePoint" />
            <mxPoint x="835.9499999999999" y="-149.88000000000005" as="targetPoint" />
          </mxGeometry>
        </mxCell>
        <mxCell id="6UiGl61B0s6jCJvGBx9i-88" value="" style="ellipse;whiteSpace=wrap;html=1;align=left;strokeColor=#1A1A1A;" parent="1" vertex="1">
          <mxGeometry x="860.0699999999999" y="229.56" width="10" height="10" as="geometry" />
        </mxCell>
        <mxCell id="6UiGl61B0s6jCJvGBx9i-89" style="edgeStyle=none;curved=1;rounded=0;orthogonalLoop=1;jettySize=auto;html=1;entryX=0.124;entryY=0.994;entryDx=0;entryDy=0;endArrow=none;startSize=14;endSize=14;sourcePerimeterSpacing=8;targetPerimeterSpacing=8;strokeColor=#1A1A1A;endFill=0;fontColor=#000000;align=center;entryPerimeter=0;exitX=0.5;exitY=0;exitDx=0;exitDy=0;" parent="1" source="6UiGl61B0s6jCJvGBx9i-88" edge="1">
          <mxGeometry relative="1" as="geometry">
            <mxPoint x="865.0699999999999" y="249.56" as="sourcePoint" />
            <mxPoint x="864.8499999999999" y="209.00000000000006" as="targetPoint" />
          </mxGeometry>
        </mxCell>
        <mxCell id="6UiGl61B0s6jCJvGBx9i-90" value="id" style="text;strokeColor=none;fillColor=none;html=1;align=center;verticalAlign=middle;whiteSpace=wrap;rounded=0;fontColor=#000000;" parent="1" vertex="1">
          <mxGeometry x="845.0699999999999" y="242.32" width="42.38" height="9.12" as="geometry" />
        </mxCell>
        <mxCell id="6UiGl61B0s6jCJvGBx9i-91" value="title" style="text;strokeColor=none;fillColor=none;html=1;align=center;verticalAlign=middle;whiteSpace=wrap;rounded=0;fontColor=#000000;" parent="1" vertex="1">
          <mxGeometry x="877.4499999999998" y="269.56" width="42.38" height="9.12" as="geometry" />
        </mxCell>
        <mxCell id="6UiGl61B0s6jCJvGBx9i-92" value="description" style="text;strokeColor=none;fillColor=none;html=1;align=center;verticalAlign=middle;whiteSpace=wrap;rounded=0;fontColor=#000000;" parent="1" vertex="1">
          <mxGeometry x="920.8999999999999" y="240.76" width="42.38" height="9.12" as="geometry" />
        </mxCell>
        <mxCell id="6UiGl61B0s6jCJvGBx9i-93" value="" style="ellipse;whiteSpace=wrap;html=1;align=left;strokeColor=#1A1A1A;fillColor=#f5f5f5;fontColor=#333333;" parent="1" vertex="1">
          <mxGeometry x="893.6399999999999" y="251.44" width="10" height="10" as="geometry" />
        </mxCell>
        <mxCell id="6UiGl61B0s6jCJvGBx9i-94" style="edgeStyle=none;curved=1;rounded=0;orthogonalLoop=1;jettySize=auto;html=1;entryX=0.124;entryY=0.994;entryDx=0;entryDy=0;endArrow=none;startSize=14;endSize=14;sourcePerimeterSpacing=8;targetPerimeterSpacing=8;strokeColor=#000000;endFill=0;fontColor=#000000;align=center;entryPerimeter=0;" parent="1" edge="1">
          <mxGeometry relative="1" as="geometry">
            <mxPoint x="898.6399999999999" y="250.56" as="sourcePoint" />
            <mxPoint x="898.6399999999999" y="209.56" as="targetPoint" />
          </mxGeometry>
        </mxCell>
        <mxCell id="6UiGl61B0s6jCJvGBx9i-95" value="" style="ellipse;whiteSpace=wrap;html=1;align=left;strokeColor=#1A1A1A;fillColor=#f5f5f5;fontColor=#333333;" parent="1" vertex="1">
          <mxGeometry x="937.0899999999999" y="229" width="10" height="10" as="geometry" />
        </mxCell>
        <mxCell id="6UiGl61B0s6jCJvGBx9i-96" style="edgeStyle=none;curved=1;rounded=0;orthogonalLoop=1;jettySize=auto;html=1;entryX=0.124;entryY=0.994;entryDx=0;entryDy=0;endArrow=none;startSize=14;endSize=14;sourcePerimeterSpacing=8;targetPerimeterSpacing=8;strokeColor=#1A1A1A;endFill=0;fontColor=#000000;align=center;entryPerimeter=0;fillColor=#f5f5f5;exitX=0.5;exitY=0;exitDx=0;exitDy=0;" parent="1" source="6UiGl61B0s6jCJvGBx9i-95" edge="1">
          <mxGeometry relative="1" as="geometry">
            <mxPoint x="941.8999999999999" y="249" as="sourcePoint" />
            <mxPoint x="942.0899999999999" y="209" as="targetPoint" />
          </mxGeometry>
        </mxCell>
        <mxCell id="6UiGl61B0s6jCJvGBx9i-97" value="createdBy" style="text;strokeColor=none;fillColor=none;html=1;align=center;verticalAlign=middle;whiteSpace=wrap;rounded=0;fontColor=#000000;" parent="1" vertex="1">
          <mxGeometry x="969.48" y="269" width="42.38" height="9.12" as="geometry" />
        </mxCell>
        <mxCell id="6UiGl61B0s6jCJvGBx9i-98" value="" style="ellipse;whiteSpace=wrap;html=1;align=left;strokeColor=#1A1A1A;fillColor=#f5f5f5;fontColor=#333333;" parent="1" vertex="1">
          <mxGeometry x="985.6700000000001" y="250.88" width="10" height="10" as="geometry" />
        </mxCell>
        <mxCell id="6UiGl61B0s6jCJvGBx9i-99" style="edgeStyle=none;curved=1;rounded=0;orthogonalLoop=1;jettySize=auto;html=1;entryX=0.124;entryY=0.994;entryDx=0;entryDy=0;endArrow=none;startSize=14;endSize=14;sourcePerimeterSpacing=8;targetPerimeterSpacing=8;strokeColor=#000000;endFill=0;fontColor=#000000;align=center;entryPerimeter=0;" parent="1" edge="1">
          <mxGeometry relative="1" as="geometry">
            <mxPoint x="990.6700000000001" y="250" as="sourcePoint" />
            <mxPoint x="990.6700000000001" y="209" as="targetPoint" />
          </mxGeometry>
        </mxCell>
        <mxCell id="6UiGl61B0s6jCJvGBx9i-103" value="" style="ellipse;whiteSpace=wrap;html=1;align=left;strokeColor=#1A1A1A;fillColor=#ffffff;" parent="1" vertex="1">
          <mxGeometry x="851.1399999999999" y="67.68" width="10" height="10" as="geometry" />
        </mxCell>
        <mxCell id="6UiGl61B0s6jCJvGBx9i-104" style="edgeStyle=none;curved=1;rounded=0;orthogonalLoop=1;jettySize=auto;html=1;endArrow=none;startSize=14;endSize=14;sourcePerimeterSpacing=8;targetPerimeterSpacing=8;strokeColor=#1A1A1A;endFill=0;fontColor=#000000;align=center;entryX=0.5;entryY=0;entryDx=0;entryDy=0;exitX=0.5;exitY=1;exitDx=0;exitDy=0;" parent="1" source="6UiGl61B0s6jCJvGBx9i-103" edge="1">
          <mxGeometry relative="1" as="geometry">
            <mxPoint x="737.3" y="137.24" as="sourcePoint" />
            <mxPoint x="856.1399999999999" y="108.99999999999994" as="targetPoint" />
          </mxGeometry>
        </mxCell>
        <mxCell id="6UiGl61B0s6jCJvGBx9i-105" value="createdAt" style="text;strokeColor=none;fillColor=none;html=1;align=center;verticalAlign=middle;whiteSpace=wrap;rounded=0;fontColor=#000000;" parent="1" vertex="1">
          <mxGeometry x="834.9499999999998" y="50.32" width="42.38" height="9.12" as="geometry" />
        </mxCell>
        <mxCell id="6UiGl61B0s6jCJvGBx9i-106" value="" style="ellipse;whiteSpace=wrap;html=1;align=left;strokeColor=#1A1A1A;fillColor=#f5f5f5;fontColor=#333333;" parent="1" vertex="1">
          <mxGeometry x="988.76" y="67.68" width="10" height="10" as="geometry" />
        </mxCell>
        <mxCell id="6UiGl61B0s6jCJvGBx9i-107" style="edgeStyle=none;curved=1;rounded=0;orthogonalLoop=1;jettySize=auto;html=1;endArrow=none;startSize=14;endSize=14;sourcePerimeterSpacing=8;targetPerimeterSpacing=8;strokeColor=#000000;endFill=0;fontColor=#000000;align=center;entryX=0.148;entryY=0;entryDx=0;entryDy=0;entryPerimeter=0;exitX=0.5;exitY=1;exitDx=0;exitDy=0;" parent="1" source="6UiGl61B0s6jCJvGBx9i-106" edge="1">
          <mxGeometry relative="1" as="geometry">
            <mxPoint x="993.7299999999998" y="68.12" as="sourcePoint" />
            <mxPoint x="993.9499999999998" y="109" as="targetPoint" />
          </mxGeometry>
        </mxCell>
        <mxCell id="6UiGl61B0s6jCJvGBx9i-108" value="updatedAt" style="text;strokeColor=none;fillColor=none;html=1;align=center;verticalAlign=middle;whiteSpace=wrap;rounded=0;fontColor=#000000;" parent="1" vertex="1">
          <mxGeometry x="972.5699999999999" y="50.32" width="42.38" height="9.12" as="geometry" />
        </mxCell>
        <mxCell id="6UiGl61B0s6jCJvGBx9i-109" value="" style="ellipse;whiteSpace=wrap;html=1;align=left;strokeColor=#1A1A1A;fillColor=#f5f5f5;fontColor=#333333;" parent="1" vertex="1">
          <mxGeometry x="888.52" y="91.80000000000001" width="10" height="10" as="geometry" />
        </mxCell>
        <mxCell id="6UiGl61B0s6jCJvGBx9i-110" style="edgeStyle=none;curved=1;rounded=0;orthogonalLoop=1;jettySize=auto;html=1;endArrow=none;startSize=14;endSize=14;sourcePerimeterSpacing=8;targetPerimeterSpacing=8;strokeColor=#1A1A1A;endFill=0;fontColor=#000000;align=center;entryX=0.294;entryY=0;entryDx=0;entryDy=0;entryPerimeter=0;exitX=0.5;exitY=1;exitDx=0;exitDy=0;" parent="1" source="6UiGl61B0s6jCJvGBx9i-109" target="6UiGl61B0s6jCJvGBx9i-22" edge="1">
          <mxGeometry relative="1" as="geometry">
            <mxPoint x="893.4899999999998" y="92.24000000000001" as="sourcePoint" />
            <mxPoint x="893.71" y="133.12" as="targetPoint" />
          </mxGeometry>
        </mxCell>
        <mxCell id="6UiGl61B0s6jCJvGBx9i-111" value="priorityId" style="text;strokeColor=none;fillColor=none;html=1;align=center;verticalAlign=middle;whiteSpace=wrap;rounded=0;fontColor=#000000;" parent="1" vertex="1">
          <mxGeometry x="872.3299999999999" y="74.44" width="42.38" height="9.12" as="geometry" />
        </mxCell>
        <mxCell id="6UiGl61B0s6jCJvGBx9i-112" value="" style="ellipse;whiteSpace=wrap;html=1;align=left;strokeColor=#1A1A1A;fillColor=#f5f5f5;fontColor=#333333;" parent="1" vertex="1">
          <mxGeometry x="946.3800000000001" y="91.80000000000001" width="10" height="10" as="geometry" />
        </mxCell>
        <mxCell id="6UiGl61B0s6jCJvGBx9i-113" style="edgeStyle=none;curved=1;rounded=0;orthogonalLoop=1;jettySize=auto;html=1;endArrow=none;startSize=14;endSize=14;sourcePerimeterSpacing=8;targetPerimeterSpacing=8;strokeColor=#1A1A1A;endFill=0;fontColor=#000000;align=center;entryX=0.294;entryY=0;entryDx=0;entryDy=0;entryPerimeter=0;exitX=0.5;exitY=1;exitDx=0;exitDy=0;" parent="1" source="6UiGl61B0s6jCJvGBx9i-112" edge="1">
          <mxGeometry relative="1" as="geometry">
            <mxPoint x="951.3499999999999" y="92.24000000000001" as="sourcePoint" />
            <mxPoint x="951.1200000000001" y="108.56" as="targetPoint" />
          </mxGeometry>
        </mxCell>
        <mxCell id="6UiGl61B0s6jCJvGBx9i-114" value="categoryId" style="text;strokeColor=none;fillColor=none;html=1;align=center;verticalAlign=middle;whiteSpace=wrap;rounded=0;fontColor=#000000;" parent="1" vertex="1">
          <mxGeometry x="930.19" y="74.44" width="42.38" height="9.12" as="geometry" />
        </mxCell>
        <mxCell id="6UiGl61B0s6jCJvGBx9i-115" value="" style="ellipse;whiteSpace=wrap;html=1;align=left;strokeColor=#1A1A1A;fillColor=#ffffff;" parent="1" vertex="1">
          <mxGeometry x="694.9999999999999" y="-291.76" width="10" height="10" as="geometry" />
        </mxCell>
        <mxCell id="6UiGl61B0s6jCJvGBx9i-116" style="edgeStyle=none;curved=1;rounded=0;orthogonalLoop=1;jettySize=auto;html=1;endArrow=none;startSize=14;endSize=14;sourcePerimeterSpacing=8;targetPerimeterSpacing=8;strokeColor=#1A1A1A;endFill=0;fontColor=#000000;align=center;entryX=0.5;entryY=0;entryDx=0;entryDy=0;exitX=0.5;exitY=1;exitDx=0;exitDy=0;" parent="1" source="6UiGl61B0s6jCJvGBx9i-115" edge="1">
          <mxGeometry relative="1" as="geometry">
            <mxPoint x="581.16" y="-222.2" as="sourcePoint" />
            <mxPoint x="699.9999999999999" y="-250.44000000000005" as="targetPoint" />
          </mxGeometry>
        </mxCell>
        <mxCell id="6UiGl61B0s6jCJvGBx9i-117" value="createdAt" style="text;strokeColor=none;fillColor=none;html=1;align=center;verticalAlign=middle;whiteSpace=wrap;rounded=0;fontColor=#000000;" parent="1" vertex="1">
          <mxGeometry x="678.8099999999998" y="-309.12" width="42.38" height="9.12" as="geometry" />
        </mxCell>
        <mxCell id="6UiGl61B0s6jCJvGBx9i-118" value="" style="ellipse;whiteSpace=wrap;html=1;align=left;strokeColor=#1A1A1A;fillColor=#f5f5f5;fontColor=#333333;" parent="1" vertex="1">
          <mxGeometry x="832.62" y="-291.76" width="10" height="10" as="geometry" />
        </mxCell>
        <mxCell id="6UiGl61B0s6jCJvGBx9i-119" style="edgeStyle=none;curved=1;rounded=0;orthogonalLoop=1;jettySize=auto;html=1;endArrow=none;startSize=14;endSize=14;sourcePerimeterSpacing=8;targetPerimeterSpacing=8;strokeColor=#000000;endFill=0;fontColor=#000000;align=center;entryX=0.148;entryY=0;entryDx=0;entryDy=0;entryPerimeter=0;exitX=0.5;exitY=1;exitDx=0;exitDy=0;" parent="1" source="6UiGl61B0s6jCJvGBx9i-118" edge="1">
          <mxGeometry relative="1" as="geometry">
            <mxPoint x="837.5899999999998" y="-291.32" as="sourcePoint" />
            <mxPoint x="837.8099999999998" y="-250.44" as="targetPoint" />
          </mxGeometry>
        </mxCell>
        <mxCell id="6UiGl61B0s6jCJvGBx9i-120" value="updatedAt" style="text;strokeColor=none;fillColor=none;html=1;align=center;verticalAlign=middle;whiteSpace=wrap;rounded=0;fontColor=#000000;" parent="1" vertex="1">
          <mxGeometry x="816.43" y="-309.12" width="42.38" height="9.12" as="geometry" />
        </mxCell>
        <mxCell id="6UiGl61B0s6jCJvGBx9i-121" value="" style="ellipse;whiteSpace=wrap;html=1;align=left;strokeColor=#1A1A1A;fillColor=#f5f5f5;fontColor=#333333;" parent="1" vertex="1">
          <mxGeometry x="732.38" y="-267.64" width="10" height="10" as="geometry" />
        </mxCell>
        <mxCell id="6UiGl61B0s6jCJvGBx9i-122" style="edgeStyle=none;curved=1;rounded=0;orthogonalLoop=1;jettySize=auto;html=1;endArrow=none;startSize=14;endSize=14;sourcePerimeterSpacing=8;targetPerimeterSpacing=8;strokeColor=#1A1A1A;endFill=0;fontColor=#000000;align=center;entryX=0.294;entryY=0;entryDx=0;entryDy=0;entryPerimeter=0;exitX=0.5;exitY=1;exitDx=0;exitDy=0;" parent="1" source="6UiGl61B0s6jCJvGBx9i-121" edge="1">
          <mxGeometry relative="1" as="geometry">
            <mxPoint x="737.3499999999998" y="-267.2" as="sourcePoint" />
            <mxPoint x="737.12" y="-250.88" as="targetPoint" />
          </mxGeometry>
        </mxCell>
        <mxCell id="6UiGl61B0s6jCJvGBx9i-123" value="role" style="text;strokeColor=none;fillColor=none;html=1;align=center;verticalAlign=middle;whiteSpace=wrap;rounded=0;fontColor=#000000;" parent="1" vertex="1">
          <mxGeometry x="716.1899999999999" y="-280.88" width="42.38" height="9.12" as="geometry" />
        </mxCell>
        <mxCell id="6UiGl61B0s6jCJvGBx9i-124" value="" style="ellipse;whiteSpace=wrap;html=1;align=left;strokeColor=#1A1A1A;fillColor=#f5f5f5;fontColor=#333333;" parent="1" vertex="1">
          <mxGeometry x="790.24" y="-267.64" width="10" height="10" as="geometry" />
        </mxCell>
        <mxCell id="6UiGl61B0s6jCJvGBx9i-125" style="edgeStyle=none;curved=1;rounded=0;orthogonalLoop=1;jettySize=auto;html=1;endArrow=none;startSize=14;endSize=14;sourcePerimeterSpacing=8;targetPerimeterSpacing=8;strokeColor=#1A1A1A;endFill=0;fontColor=#000000;align=center;entryX=0.294;entryY=0;entryDx=0;entryDy=0;entryPerimeter=0;exitX=0.5;exitY=1;exitDx=0;exitDy=0;" parent="1" source="6UiGl61B0s6jCJvGBx9i-124" edge="1">
          <mxGeometry relative="1" as="geometry">
            <mxPoint x="795.2099999999998" y="-267.2" as="sourcePoint" />
            <mxPoint x="794.98" y="-250.88" as="targetPoint" />
          </mxGeometry>
        </mxCell>
        <mxCell id="6UiGl61B0s6jCJvGBx9i-126" value="phoneNumber" style="text;strokeColor=none;fillColor=none;html=1;align=center;verticalAlign=middle;whiteSpace=wrap;rounded=0;fontColor=#000000;" parent="1" vertex="1">
          <mxGeometry x="773.81" y="-280.88" width="42.38" height="9.12" as="geometry" />
        </mxCell>
        <mxCell id="6UiGl61B0s6jCJvGBx9i-128" style="rounded=0;orthogonalLoop=1;jettySize=auto;html=1;entryX=1;entryY=0;entryDx=0;entryDy=0;endArrow=none;endFill=0;strokeColor=#1A1A1A;exitX=0;exitY=1;exitDx=0;exitDy=0;" parent="1" source="6UiGl61B0s6jCJvGBx9i-127" target="6UiGl61B0s6jCJvGBx9i-35" edge="1">
          <mxGeometry relative="1" as="geometry">
            <mxPoint x="880.16" y="-229.78" as="sourcePoint" />
            <mxPoint x="849.9999999999999" y="-224.72000000000006" as="targetPoint" />
          </mxGeometry>
        </mxCell>
        <mxCell id="6UiGl61B0s6jCJvGBx9i-127" value="" style="ellipse;whiteSpace=wrap;html=1;align=left;strokeColor=#1A1A1A;fillColor=#f5f5f5;fontColor=#333333;" parent="1" vertex="1">
          <mxGeometry x="886.2599999999999" y="-287.64" width="10" height="10" as="geometry" />
        </mxCell>
        <mxCell id="6UiGl61B0s6jCJvGBx9i-131" value="email" style="text;strokeColor=none;fillColor=none;html=1;align=center;verticalAlign=middle;whiteSpace=wrap;rounded=0;fontColor=#000000;" parent="1" vertex="1">
          <mxGeometry x="870.0699999999999" y="-299.71" width="42.38" height="9.12" as="geometry" />
        </mxCell>
        <mxCell id="6UiGl61B0s6jCJvGBx9i-133" style="edgeStyle=orthogonalEdgeStyle;rounded=0;orthogonalLoop=1;jettySize=auto;html=1;exitX=1;exitY=0.5;exitDx=0;exitDy=0;entryX=0;entryY=0.5;entryDx=0;entryDy=0;fontColor=#1A1A1A;endArrow=none;endFill=0;strokeColor=#1A1A1A;" parent="1" source="4lUT4WymGG-tnzOa8VI8-8" target="6UiGl61B0s6jCJvGBx9i-12" edge="1">
          <mxGeometry relative="1" as="geometry">
            <Array as="points">
              <mxPoint x="1180" y="159" />
              <mxPoint x="1180" y="89" />
            </Array>
          </mxGeometry>
        </mxCell>
        <mxCell id="6UiGl61B0s6jCJvGBx9i-136" style="edgeStyle=orthogonalEdgeStyle;rounded=0;orthogonalLoop=1;jettySize=auto;html=1;entryX=0;entryY=0.5;entryDx=0;entryDy=0;strokeColor=#1A1A1A;endArrow=none;endFill=0;" parent="1" source="6UiGl61B0s6jCJvGBx9i-135" target="6UiGl61B0s6jCJvGBx9i-38" edge="1">
          <mxGeometry relative="1" as="geometry" />
        </mxCell>
        <mxCell id="6UiGl61B0s6jCJvGBx9i-135" value="&lt;font style=&quot;font-size: 10px;&quot; color=&quot;#1a1a1a&quot;&gt;HAS&lt;/font&gt;" style="rhombus;whiteSpace=wrap;html=1;fillColor=#FFFFFF;strokeColor=#1A1A1A;" parent="1" vertex="1">
          <mxGeometry x="202.14" y="-70.55999999999999" width="80" height="80" as="geometry" />
        </mxCell>
        <mxCell id="6UiGl61B0s6jCJvGBx9i-137" style="edgeStyle=orthogonalEdgeStyle;rounded=0;orthogonalLoop=1;jettySize=auto;html=1;entryX=0.48;entryY=0.017;entryDx=0;entryDy=0;entryPerimeter=0;strokeColor=#1A1A1A;endArrow=none;endFill=0;" parent="1" source="6UiGl61B0s6jCJvGBx9i-135" target="6UiGl61B0s6jCJvGBx9i-24" edge="1">
          <mxGeometry relative="1" as="geometry" />
        </mxCell>
        <mxCell id="6UiGl61B0s6jCJvGBx9i-138" value="&lt;font style=&quot;font-size: 10px;&quot; color=&quot;#1a1a1a&quot;&gt;SUBSCRIBES&lt;/font&gt;" style="rhombus;whiteSpace=wrap;html=1;fillColor=#FFFFFF;strokeColor=#1A1A1A;" parent="1" vertex="1">
          <mxGeometry x="411.43" y="-269.56" width="92.38" height="89.56" as="geometry" />
        </mxCell>
        <mxCell id="6UiGl61B0s6jCJvGBx9i-139" style="edgeStyle=orthogonalEdgeStyle;rounded=0;orthogonalLoop=1;jettySize=auto;html=1;entryX=1.002;entryY=0.15;entryDx=0;entryDy=0;strokeColor=#1A1A1A;endArrow=none;endFill=0;exitX=0;exitY=0.5;exitDx=0;exitDy=0;entryPerimeter=0;" parent="1" source="6UiGl61B0s6jCJvGBx9i-138" target="6UiGl61B0s6jCJvGBx9i-48" edge="1">
          <mxGeometry relative="1" as="geometry">
            <mxPoint x="225" y="49" as="sourcePoint" />
            <mxPoint x="368" y="49" as="targetPoint" />
          </mxGeometry>
        </mxCell>
        <mxCell id="6UiGl61B0s6jCJvGBx9i-140" style="edgeStyle=orthogonalEdgeStyle;rounded=0;orthogonalLoop=1;jettySize=auto;html=1;entryX=0;entryY=0.25;entryDx=0;entryDy=0;strokeColor=#1A1A1A;endArrow=none;endFill=0;exitX=1;exitY=0.5;exitDx=0;exitDy=0;" parent="1" source="6UiGl61B0s6jCJvGBx9i-138" target="6UiGl61B0s6jCJvGBx9i-35" edge="1">
          <mxGeometry relative="1" as="geometry">
            <mxPoint x="421" y="-190" as="sourcePoint" />
            <mxPoint x="262" y="-190" as="targetPoint" />
          </mxGeometry>
        </mxCell>
        <mxCell id="6UiGl61B0s6jCJvGBx9i-151" value="STATUS" style="rounded=0;whiteSpace=wrap;html=1;fillColor=#f5f5f5;fontColor=#000000;strokeColor=#1A1A1A;align=center;" parent="1" vertex="1">
          <mxGeometry x="478.05" y="109" width="160" height="100" as="geometry" />
        </mxCell>
        <mxCell id="6UiGl61B0s6jCJvGBx9i-152" value="" style="ellipse;whiteSpace=wrap;html=1;align=left;strokeColor=#1A1A1A;" parent="1" vertex="1">
          <mxGeometry x="493.05" y="245.80000000000007" width="10" height="10" as="geometry" />
        </mxCell>
        <mxCell id="6UiGl61B0s6jCJvGBx9i-153" style="edgeStyle=none;curved=1;rounded=0;orthogonalLoop=1;jettySize=auto;html=1;entryX=0.126;entryY=0.997;entryDx=0;entryDy=0;endArrow=none;startSize=14;endSize=14;sourcePerimeterSpacing=8;targetPerimeterSpacing=8;strokeColor=#1A1A1A;endFill=0;fontColor=#000000;align=center;entryPerimeter=0;exitX=0.5;exitY=0;exitDx=0;exitDy=0;" parent="1" source="6UiGl61B0s6jCJvGBx9i-152" target="6UiGl61B0s6jCJvGBx9i-151" edge="1">
          <mxGeometry relative="1" as="geometry">
            <mxPoint x="498.05" y="265.80000000000007" as="sourcePoint" />
            <mxPoint x="497.88999999999993" y="165.64" as="targetPoint" />
          </mxGeometry>
        </mxCell>
        <mxCell id="6UiGl61B0s6jCJvGBx9i-154" value="id" style="text;strokeColor=none;fillColor=none;html=1;align=left;verticalAlign=middle;whiteSpace=wrap;rounded=0;fontColor=#000000;" parent="1" vertex="1">
          <mxGeometry x="489.9600000000001" y="258.56000000000006" width="16.19" height="9.12" as="geometry" />
        </mxCell>
        <mxCell id="6UiGl61B0s6jCJvGBx9i-155" value="name" style="text;strokeColor=none;fillColor=none;html=1;align=center;verticalAlign=middle;whiteSpace=wrap;rounded=0;fontColor=#000000;" parent="1" vertex="1">
          <mxGeometry x="536.8599999999999" y="258.56000000000006" width="42.38" height="9.12" as="geometry" />
        </mxCell>
        <mxCell id="6UiGl61B0s6jCJvGBx9i-156" value="" style="ellipse;whiteSpace=wrap;html=1;align=left;strokeColor=#1A1A1A;fillColor=#f5f5f5;fontColor=#333333;" parent="1" vertex="1">
          <mxGeometry x="553.05" y="245.80000000000007" width="10" height="10" as="geometry" />
        </mxCell>
        <mxCell id="6UiGl61B0s6jCJvGBx9i-157" style="edgeStyle=none;curved=1;rounded=0;orthogonalLoop=1;jettySize=auto;html=1;entryX=0.5;entryY=1;entryDx=0;entryDy=0;endArrow=none;startSize=14;endSize=14;sourcePerimeterSpacing=8;targetPerimeterSpacing=8;strokeColor=#1A1A1A;endFill=0;fontColor=#000000;align=center;fillColor=#f5f5f5;exitX=0.5;exitY=0;exitDx=0;exitDy=0;" parent="1" source="6UiGl61B0s6jCJvGBx9i-156" target="6UiGl61B0s6jCJvGBx9i-151" edge="1">
          <mxGeometry relative="1" as="geometry">
            <mxPoint x="567.6199999999999" y="309.56000000000006" as="sourcePoint" />
            <mxPoint x="567.81" y="269.56000000000006" as="targetPoint" />
          </mxGeometry>
        </mxCell>
        <mxCell id="6UiGl61B0s6jCJvGBx9i-158" value="description" style="text;strokeColor=none;fillColor=none;html=1;align=center;verticalAlign=middle;whiteSpace=wrap;rounded=0;fontColor=#000000;" parent="1" vertex="1">
          <mxGeometry x="605.19" y="257.68000000000006" width="42.38" height="9.12" as="geometry" />
        </mxCell>
        <mxCell id="6UiGl61B0s6jCJvGBx9i-159" value="" style="ellipse;whiteSpace=wrap;html=1;align=left;strokeColor=#1A1A1A;fillColor=#f5f5f5;fontColor=#333333;" parent="1" vertex="1">
          <mxGeometry x="621.3799999999999" y="245.80000000000007" width="10" height="10" as="geometry" />
        </mxCell>
        <mxCell id="6UiGl61B0s6jCJvGBx9i-160" style="edgeStyle=none;curved=1;rounded=0;orthogonalLoop=1;jettySize=auto;html=1;entryX=0.928;entryY=0.992;entryDx=0;entryDy=0;endArrow=none;startSize=14;endSize=14;sourcePerimeterSpacing=8;targetPerimeterSpacing=8;strokeColor=#1A1A1A;endFill=0;fontColor=#000000;align=center;entryPerimeter=0;exitX=0.5;exitY=0;exitDx=0;exitDy=0;" parent="1" source="6UiGl61B0s6jCJvGBx9i-159" target="6UiGl61B0s6jCJvGBx9i-151" edge="1">
          <mxGeometry relative="1" as="geometry">
            <mxPoint x="626.3799999999999" y="257.80000000000007" as="sourcePoint" />
            <mxPoint x="625.8399999999999" y="156.33999999999997" as="targetPoint" />
          </mxGeometry>
        </mxCell>
        <mxCell id="6UiGl61B0s6jCJvGBx9i-161" value="&lt;font style=&quot;font-size: 10px;&quot; color=&quot;#1a1a1a&quot;&gt;REGISTER&lt;/font&gt;" style="rhombus;whiteSpace=wrap;html=1;fillColor=#FFFFFF;strokeColor=#1A1A1A;" parent="1" vertex="1">
          <mxGeometry x="694.95" y="119.44" width="80" height="80" as="geometry" />
        </mxCell>
        <mxCell id="6UiGl61B0s6jCJvGBx9i-163" style="edgeStyle=orthogonalEdgeStyle;rounded=0;orthogonalLoop=1;jettySize=auto;html=1;entryX=0;entryY=0.5;entryDx=0;entryDy=0;strokeColor=#1A1A1A;endArrow=none;endFill=0;exitX=1;exitY=0.5;exitDx=0;exitDy=0;" parent="1" source="6UiGl61B0s6jCJvGBx9i-151" target="6UiGl61B0s6jCJvGBx9i-161" edge="1">
          <mxGeometry relative="1" as="geometry">
            <mxPoint x="341.95000000000005" y="-21.88" as="sourcePoint" />
            <mxPoint x="484.95" y="-21.88" as="targetPoint" />
          </mxGeometry>
        </mxCell>
        <mxCell id="6UiGl61B0s6jCJvGBx9i-164" style="edgeStyle=orthogonalEdgeStyle;rounded=0;orthogonalLoop=1;jettySize=auto;html=1;entryX=1;entryY=0.5;entryDx=0;entryDy=0;strokeColor=#1A1A1A;endArrow=none;endFill=0;exitX=0;exitY=0.5;exitDx=0;exitDy=0;" parent="1" source="6UiGl61B0s6jCJvGBx9i-22" target="6UiGl61B0s6jCJvGBx9i-161" edge="1">
          <mxGeometry relative="1" as="geometry">
            <mxPoint x="351.95" y="-11.879999999999999" as="sourcePoint" />
            <mxPoint x="494.95" y="-11.879999999999999" as="targetPoint" />
          </mxGeometry>
        </mxCell>
        <mxCell id="6UiGl61B0s6jCJvGBx9i-167" style="edgeStyle=orthogonalEdgeStyle;rounded=0;orthogonalLoop=1;jettySize=auto;html=1;entryX=0;entryY=0.5;entryDx=0;entryDy=0;strokeColor=#1A1A1A;endArrow=none;endFill=0;exitX=0.5;exitY=0;exitDx=0;exitDy=0;" parent="1" source="4lUT4WymGG-tnzOa8VI8-5" target="6UiGl61B0s6jCJvGBx9i-35" edge="1">
          <mxGeometry relative="1" as="geometry">
            <mxPoint x="524" y="-205" as="sourcePoint" />
            <mxPoint x="540" y="-72.34000000000003" as="targetPoint" />
          </mxGeometry>
        </mxCell>
        <mxCell id="6UiGl61B0s6jCJvGBx9i-169" value="COMMENT" style="rounded=0;whiteSpace=wrap;html=1;fillColor=#f5f5f5;fontColor=#000000;strokeColor=#1A1A1A;align=center;" parent="1" vertex="1">
          <mxGeometry x="958.4" y="-312.35" width="160" height="100" as="geometry" />
        </mxCell>
        <mxCell id="6UiGl61B0s6jCJvGBx9i-170" value="" style="ellipse;whiteSpace=wrap;html=1;align=left;strokeColor=#1A1A1A;fillColor=#ffffff;" parent="1" vertex="1">
          <mxGeometry x="963.2799999999999" y="-353.67" width="10" height="10" as="geometry" />
        </mxCell>
        <mxCell id="6UiGl61B0s6jCJvGBx9i-171" style="edgeStyle=none;curved=1;rounded=0;orthogonalLoop=1;jettySize=auto;html=1;endArrow=none;startSize=14;endSize=14;sourcePerimeterSpacing=8;targetPerimeterSpacing=8;strokeColor=#1A1A1A;endFill=0;fontColor=#000000;align=center;entryX=0.5;entryY=0;entryDx=0;entryDy=0;exitX=0.5;exitY=1;exitDx=0;exitDy=0;" parent="1" source="6UiGl61B0s6jCJvGBx9i-170" edge="1">
          <mxGeometry relative="1" as="geometry">
            <mxPoint x="849.4399999999999" y="-284.11" as="sourcePoint" />
            <mxPoint x="968.2799999999999" y="-312.3500000000001" as="targetPoint" />
          </mxGeometry>
        </mxCell>
        <mxCell id="6UiGl61B0s6jCJvGBx9i-172" value="userId" style="text;strokeColor=none;fillColor=none;html=1;align=center;verticalAlign=middle;whiteSpace=wrap;rounded=0;fontColor=#000000;" parent="1" vertex="1">
          <mxGeometry x="947.0899999999998" y="-371.03000000000003" width="42.38" height="9.12" as="geometry" />
        </mxCell>
        <mxCell id="6UiGl61B0s6jCJvGBx9i-173" value="" style="ellipse;whiteSpace=wrap;html=1;align=left;strokeColor=#1A1A1A;fillColor=#f5f5f5;fontColor=#333333;" parent="1" vertex="1">
          <mxGeometry x="1100.9" y="-353.67" width="10" height="10" as="geometry" />
        </mxCell>
        <mxCell id="6UiGl61B0s6jCJvGBx9i-174" style="edgeStyle=none;curved=1;rounded=0;orthogonalLoop=1;jettySize=auto;html=1;endArrow=none;startSize=14;endSize=14;sourcePerimeterSpacing=8;targetPerimeterSpacing=8;strokeColor=#000000;endFill=0;fontColor=#000000;align=center;entryX=0.148;entryY=0;entryDx=0;entryDy=0;entryPerimeter=0;exitX=0.5;exitY=1;exitDx=0;exitDy=0;" parent="1" source="6UiGl61B0s6jCJvGBx9i-173" edge="1">
          <mxGeometry relative="1" as="geometry">
            <mxPoint x="1105.87" y="-353.23" as="sourcePoint" />
            <mxPoint x="1106.0899999999997" y="-312.35" as="targetPoint" />
          </mxGeometry>
        </mxCell>
        <mxCell id="6UiGl61B0s6jCJvGBx9i-175" value="ticketId" style="text;strokeColor=none;fillColor=none;html=1;align=center;verticalAlign=middle;whiteSpace=wrap;rounded=0;fontColor=#000000;" parent="1" vertex="1">
          <mxGeometry x="1084.71" y="-371.03000000000003" width="42.38" height="9.12" as="geometry" />
        </mxCell>
        <mxCell id="6UiGl61B0s6jCJvGBx9i-191" value="" style="ellipse;whiteSpace=wrap;html=1;align=left;strokeColor=#1A1A1A;" parent="1" vertex="1">
          <mxGeometry x="966.3699999999999" y="-176.12999999999994" width="10" height="10" as="geometry" />
        </mxCell>
        <mxCell id="6UiGl61B0s6jCJvGBx9i-192" style="edgeStyle=none;curved=1;rounded=0;orthogonalLoop=1;jettySize=auto;html=1;entryX=0.081;entryY=1;entryDx=0;entryDy=0;endArrow=none;startSize=14;endSize=14;sourcePerimeterSpacing=8;targetPerimeterSpacing=8;strokeColor=#1A1A1A;endFill=0;fontColor=#000000;align=center;entryPerimeter=0;exitX=0.5;exitY=0;exitDx=0;exitDy=0;" parent="1" source="6UiGl61B0s6jCJvGBx9i-191" target="6UiGl61B0s6jCJvGBx9i-169" edge="1">
          <mxGeometry relative="1" as="geometry">
            <mxPoint x="971.3699999999999" y="-156.12999999999994" as="sourcePoint" />
            <mxPoint x="971.3699999999999" y="-212.93" as="targetPoint" />
          </mxGeometry>
        </mxCell>
        <mxCell id="6UiGl61B0s6jCJvGBx9i-193" value="id" style="text;strokeColor=none;fillColor=none;html=1;align=left;verticalAlign=middle;whiteSpace=wrap;rounded=0;fontColor=#000000;" parent="1" vertex="1">
          <mxGeometry x="963.28" y="-163.36999999999995" width="16.19" height="9.12" as="geometry" />
        </mxCell>
        <mxCell id="6UiGl61B0s6jCJvGBx9i-194" value="text" style="text;strokeColor=none;fillColor=none;html=1;align=center;verticalAlign=middle;whiteSpace=wrap;rounded=0;fontColor=#000000;" parent="1" vertex="1">
          <mxGeometry x="1010.1799999999998" y="-163.36999999999995" width="42.38" height="9.12" as="geometry" />
        </mxCell>
        <mxCell id="6UiGl61B0s6jCJvGBx9i-195" value="" style="ellipse;whiteSpace=wrap;html=1;align=left;strokeColor=#1A1A1A;fillColor=#f5f5f5;fontColor=#333333;" parent="1" vertex="1">
          <mxGeometry x="1026.37" y="-176.12999999999994" width="10" height="10" as="geometry" />
        </mxCell>
        <mxCell id="6UiGl61B0s6jCJvGBx9i-196" style="edgeStyle=none;curved=1;rounded=0;orthogonalLoop=1;jettySize=auto;html=1;entryX=0.456;entryY=1;entryDx=0;entryDy=0;endArrow=none;startSize=14;endSize=14;sourcePerimeterSpacing=8;targetPerimeterSpacing=8;strokeColor=#1A1A1A;endFill=0;fontColor=#000000;align=center;fillColor=#f5f5f5;exitX=0.5;exitY=0;exitDx=0;exitDy=0;entryPerimeter=0;" parent="1" source="6UiGl61B0s6jCJvGBx9i-195" target="6UiGl61B0s6jCJvGBx9i-169" edge="1">
          <mxGeometry relative="1" as="geometry">
            <mxPoint x="1040.9399999999998" y="-112.36999999999995" as="sourcePoint" />
            <mxPoint x="1031.37" y="-212.93" as="targetPoint" />
          </mxGeometry>
        </mxCell>
        <mxCell id="6UiGl61B0s6jCJvGBx9i-197" value="writtenOn" style="text;strokeColor=none;fillColor=none;html=1;align=center;verticalAlign=middle;whiteSpace=wrap;rounded=0;fontColor=#000000;" parent="1" vertex="1">
          <mxGeometry x="1078.51" y="-164.24999999999994" width="42.38" height="9.12" as="geometry" />
        </mxCell>
        <mxCell id="6UiGl61B0s6jCJvGBx9i-198" value="" style="ellipse;whiteSpace=wrap;html=1;align=left;strokeColor=#1A1A1A;fillColor=#f5f5f5;fontColor=#333333;" parent="1" vertex="1">
          <mxGeometry x="1094.6999999999998" y="-176.12999999999994" width="10" height="10" as="geometry" />
        </mxCell>
        <mxCell id="6UiGl61B0s6jCJvGBx9i-199" style="edgeStyle=none;curved=1;rounded=0;orthogonalLoop=1;jettySize=auto;html=1;entryX=0.884;entryY=0.999;entryDx=0;entryDy=0;endArrow=none;startSize=14;endSize=14;sourcePerimeterSpacing=8;targetPerimeterSpacing=8;strokeColor=#1A1A1A;endFill=0;fontColor=#000000;align=center;entryPerimeter=0;exitX=0.5;exitY=0;exitDx=0;exitDy=0;" parent="1" source="6UiGl61B0s6jCJvGBx9i-198" target="6UiGl61B0s6jCJvGBx9i-169" edge="1">
          <mxGeometry relative="1" as="geometry">
            <mxPoint x="1099.6999999999998" y="-164.12999999999994" as="sourcePoint" />
            <mxPoint x="1099.37" y="-213.93" as="targetPoint" />
          </mxGeometry>
        </mxCell>
        <mxCell id="6UiGl61B0s6jCJvGBx9i-201" style="rounded=0;orthogonalLoop=1;jettySize=auto;html=1;entryX=0;entryY=0.522;entryDx=0;entryDy=0;strokeColor=#1A1A1A;endArrow=none;endFill=0;entryPerimeter=0;" parent="1" source="4lUT4WymGG-tnzOa8VI8-20" target="6UiGl61B0s6jCJvGBx9i-169" edge="1">
          <mxGeometry relative="1" as="geometry">
            <mxPoint x="850" y="-200" as="sourcePoint" />
            <mxPoint x="700" y="-165" as="targetPoint" />
            <Array as="points">
              <mxPoint x="910" y="-200" />
              <mxPoint x="910" y="-260" />
            </Array>
          </mxGeometry>
        </mxCell>
        <mxCell id="6UiGl61B0s6jCJvGBx9i-207" value="" style="ellipse;whiteSpace=wrap;html=1;align=left;strokeColor=#1A1A1A;" parent="1" vertex="1">
          <mxGeometry x="385.23999999999984" y="-253.95999999999998" width="10" height="10" as="geometry" />
        </mxCell>
        <mxCell id="6UiGl61B0s6jCJvGBx9i-208" style="edgeStyle=none;curved=1;rounded=0;orthogonalLoop=1;jettySize=auto;html=1;endArrow=none;startSize=14;endSize=14;sourcePerimeterSpacing=8;targetPerimeterSpacing=8;strokeColor=#1A1A1A;endFill=0;fontColor=#000000;align=center;entryX=0.096;entryY=0.407;entryDx=0;entryDy=0;exitX=1;exitY=1;exitDx=0;exitDy=0;entryPerimeter=0;" parent="1" source="6UiGl61B0s6jCJvGBx9i-207" target="6UiGl61B0s6jCJvGBx9i-138" edge="1">
          <mxGeometry relative="1" as="geometry">
            <mxPoint x="271.3999999999999" y="-201.76" as="sourcePoint" />
            <mxPoint x="390.23999999999984" y="-230.00000000000006" as="targetPoint" />
          </mxGeometry>
        </mxCell>
        <mxCell id="6UiGl61B0s6jCJvGBx9i-209" value="id" style="text;strokeColor=none;fillColor=none;html=1;align=center;verticalAlign=middle;whiteSpace=wrap;rounded=0;fontColor=#000000;" parent="1" vertex="1">
          <mxGeometry x="369.0499999999998" y="-267.2" width="42.38" height="9.12" as="geometry" />
        </mxCell>
        <mxCell id="6UiGl61B0s6jCJvGBx9i-210" value="" style="ellipse;whiteSpace=wrap;html=1;align=left;strokeColor=#1A1A1A;fillColor=#f5f5f5;fontColor=#333333;" parent="1" vertex="1">
          <mxGeometry x="520" y="-252.2" width="10" height="10" as="geometry" />
        </mxCell>
        <mxCell id="6UiGl61B0s6jCJvGBx9i-211" style="edgeStyle=none;curved=1;rounded=0;orthogonalLoop=1;jettySize=auto;html=1;endArrow=none;startSize=14;endSize=14;sourcePerimeterSpacing=8;targetPerimeterSpacing=8;strokeColor=#1A1A1A;endFill=0;fontColor=#000000;align=center;entryX=0.917;entryY=0.41;entryDx=0;entryDy=0;exitX=0;exitY=1;exitDx=0;exitDy=0;entryPerimeter=0;" parent="1" source="6UiGl61B0s6jCJvGBx9i-210" target="6UiGl61B0s6jCJvGBx9i-138" edge="1">
          <mxGeometry relative="1" as="geometry">
            <mxPoint x="524.9699999999998" y="-251.76" as="sourcePoint" />
            <mxPoint x="525.38" y="-209.56" as="targetPoint" />
          </mxGeometry>
        </mxCell>
        <mxCell id="6UiGl61B0s6jCJvGBx9i-212" value="isActive" style="text;strokeColor=none;fillColor=none;html=1;align=center;verticalAlign=middle;whiteSpace=wrap;rounded=0;fontColor=#000000;" parent="1" vertex="1">
          <mxGeometry x="503.8099999999999" y="-266.76" width="42.38" height="9.12" as="geometry" />
        </mxCell>
        <mxCell id="6UiGl61B0s6jCJvGBx9i-213" value="" style="ellipse;whiteSpace=wrap;html=1;align=left;strokeColor=#1A1A1A;fillColor=#f5f5f5;fontColor=#333333;" parent="1" vertex="1">
          <mxGeometry x="494.24" y="-278.64" width="10" height="10" as="geometry" />
        </mxCell>
        <mxCell id="6UiGl61B0s6jCJvGBx9i-214" style="edgeStyle=none;curved=1;rounded=0;orthogonalLoop=1;jettySize=auto;html=1;endArrow=none;startSize=14;endSize=14;sourcePerimeterSpacing=8;targetPerimeterSpacing=8;strokeColor=#1A1A1A;endFill=0;fontColor=#000000;align=center;entryX=0.629;entryY=0.134;entryDx=0;entryDy=0;exitX=0;exitY=1;exitDx=0;exitDy=0;entryPerimeter=0;" parent="1" source="6UiGl61B0s6jCJvGBx9i-213" target="6UiGl61B0s6jCJvGBx9i-138" edge="1">
          <mxGeometry relative="1" as="geometry">
            <mxPoint x="499.2099999999998" y="-278.2" as="sourcePoint" />
            <mxPoint x="470.24" y="-259.44" as="targetPoint" />
          </mxGeometry>
        </mxCell>
        <mxCell id="6UiGl61B0s6jCJvGBx9i-215" value="endDate" style="text;strokeColor=none;fillColor=none;html=1;align=center;verticalAlign=middle;whiteSpace=wrap;rounded=0;fontColor=#000000;" parent="1" vertex="1">
          <mxGeometry x="478.04999999999995" y="-293.2" width="42.38" height="9.12" as="geometry" />
        </mxCell>
        <mxCell id="6UiGl61B0s6jCJvGBx9i-216" value="" style="ellipse;whiteSpace=wrap;html=1;align=left;strokeColor=#1A1A1A;fillColor=#f5f5f5;fontColor=#333333;" parent="1" vertex="1">
          <mxGeometry x="410.24" y="-277.64" width="10" height="10" as="geometry" />
        </mxCell>
        <mxCell id="6UiGl61B0s6jCJvGBx9i-217" style="edgeStyle=none;curved=1;rounded=0;orthogonalLoop=1;jettySize=auto;html=1;endArrow=none;startSize=14;endSize=14;sourcePerimeterSpacing=8;targetPerimeterSpacing=8;strokeColor=#1A1A1A;endFill=0;fontColor=#000000;align=center;entryX=0.337;entryY=0.15;entryDx=0;entryDy=0;exitX=1;exitY=1;exitDx=0;exitDy=0;entryPerimeter=0;" parent="1" source="6UiGl61B0s6jCJvGBx9i-216" target="6UiGl61B0s6jCJvGBx9i-138" edge="1">
          <mxGeometry relative="1" as="geometry">
            <mxPoint x="416.3999999999998" y="-276.46999999999997" as="sourcePoint" />
            <mxPoint x="450.30634000000003" y="-253.94995999999998" as="targetPoint" />
          </mxGeometry>
        </mxCell>
        <mxCell id="6UiGl61B0s6jCJvGBx9i-218" value="startDate" style="text;strokeColor=none;fillColor=none;html=1;align=center;verticalAlign=middle;whiteSpace=wrap;rounded=0;fontColor=#000000;" parent="1" vertex="1">
          <mxGeometry x="394.04999999999995" y="-292.2" width="42.38" height="9.12" as="geometry" />
        </mxCell>
        <mxCell id="6UiGl61B0s6jCJvGBx9i-219" value="" style="ellipse;whiteSpace=wrap;html=1;align=left;strokeColor=#1A1A1A;fillColor=#f5f5f5;fontColor=#333333;" parent="1" vertex="1">
          <mxGeometry x="520" y="-197.86999999999998" width="10" height="10" as="geometry" />
        </mxCell>
        <mxCell id="6UiGl61B0s6jCJvGBx9i-220" style="edgeStyle=none;curved=1;rounded=0;orthogonalLoop=1;jettySize=auto;html=1;endArrow=none;startSize=14;endSize=14;sourcePerimeterSpacing=8;targetPerimeterSpacing=8;strokeColor=#1A1A1A;endFill=0;fontColor=#000000;align=center;entryX=1;entryY=1;entryDx=0;entryDy=0;exitX=0;exitY=0.5;exitDx=0;exitDy=0;" parent="1" source="6UiGl61B0s6jCJvGBx9i-219" target="6UiGl61B0s6jCJvGBx9i-138" edge="1">
          <mxGeometry relative="1" as="geometry">
            <mxPoint x="524.9699999999998" y="-197.42999999999998" as="sourcePoint" />
            <mxPoint x="484.87210000000005" y="-203.56064" as="targetPoint" />
          </mxGeometry>
        </mxCell>
        <mxCell id="6UiGl61B0s6jCJvGBx9i-221" value="userId" style="text;strokeColor=none;fillColor=none;html=1;align=center;verticalAlign=middle;whiteSpace=wrap;rounded=0;fontColor=#000000;" parent="1" vertex="1">
          <mxGeometry x="503.80999999999995" y="-210.96999999999997" width="42.38" height="9.12" as="geometry" />
        </mxCell>
        <mxCell id="6UiGl61B0s6jCJvGBx9i-222" value="" style="ellipse;whiteSpace=wrap;html=1;align=left;strokeColor=#1A1A1A;fillColor=#f5f5f5;fontColor=#333333;" parent="1" vertex="1">
          <mxGeometry x="385.24" y="-196.40999999999997" width="10" height="10" as="geometry" />
        </mxCell>
        <mxCell id="6UiGl61B0s6jCJvGBx9i-223" style="edgeStyle=none;curved=1;rounded=0;orthogonalLoop=1;jettySize=auto;html=1;endArrow=none;startSize=14;endSize=14;sourcePerimeterSpacing=8;targetPerimeterSpacing=8;strokeColor=#1A1A1A;endFill=0;fontColor=#000000;align=center;entryX=0;entryY=1;entryDx=0;entryDy=0;exitX=1;exitY=0.5;exitDx=0;exitDy=0;" parent="1" source="6UiGl61B0s6jCJvGBx9i-222" target="6UiGl61B0s6jCJvGBx9i-138" edge="1">
          <mxGeometry relative="1" as="geometry">
            <mxPoint x="391.3999999999998" y="-195.23999999999995" as="sourcePoint" />
            <mxPoint x="418" y="-174.76999999999998" as="targetPoint" />
          </mxGeometry>
        </mxCell>
        <mxCell id="6UiGl61B0s6jCJvGBx9i-224" value="planId" style="text;strokeColor=none;fillColor=none;html=1;align=center;verticalAlign=middle;whiteSpace=wrap;rounded=0;fontColor=#000000;" parent="1" vertex="1">
          <mxGeometry x="369.04999999999995" y="-210.96999999999997" width="42.38" height="9.12" as="geometry" />
        </mxCell>
        <mxCell id="6UiGl61B0s6jCJvGBx9i-225" value="" style="ellipse;whiteSpace=wrap;html=1;align=left;strokeColor=#1A1A1A;" parent="1" vertex="1">
          <mxGeometry x="729.9499999999999" y="235.80000000000007" width="10" height="10" as="geometry" />
        </mxCell>
        <mxCell id="6UiGl61B0s6jCJvGBx9i-226" style="edgeStyle=none;curved=1;rounded=0;orthogonalLoop=1;jettySize=auto;html=1;entryX=0.126;entryY=0.997;entryDx=0;entryDy=0;endArrow=none;startSize=14;endSize=14;sourcePerimeterSpacing=8;targetPerimeterSpacing=8;strokeColor=#1A1A1A;endFill=0;fontColor=#000000;align=center;entryPerimeter=0;exitX=0.5;exitY=0;exitDx=0;exitDy=0;" parent="1" source="6UiGl61B0s6jCJvGBx9i-225" edge="1">
          <mxGeometry relative="1" as="geometry">
            <mxPoint x="734.9499999999999" y="255.80000000000007" as="sourcePoint" />
            <mxPoint x="734.9499999999999" y="199" as="targetPoint" />
          </mxGeometry>
        </mxCell>
        <mxCell id="6UiGl61B0s6jCJvGBx9i-227" value="id" style="text;strokeColor=none;fillColor=none;html=1;align=left;verticalAlign=middle;whiteSpace=wrap;rounded=0;fontColor=#000000;" parent="1" vertex="1">
          <mxGeometry x="726.8599999999999" y="250" width="16.19" height="7.68" as="geometry" />
        </mxCell>
        <mxCell id="6UiGl61B0s6jCJvGBx9i-228" value="" style="ellipse;whiteSpace=wrap;html=1;align=left;strokeColor=#1A1A1A;fillColor=#ffffff;" parent="1" vertex="1">
          <mxGeometry x="729.9499999999998" y="78.12" width="10" height="10" as="geometry" />
        </mxCell>
        <mxCell id="6UiGl61B0s6jCJvGBx9i-229" style="edgeStyle=none;curved=1;rounded=0;orthogonalLoop=1;jettySize=auto;html=1;endArrow=none;startSize=14;endSize=14;sourcePerimeterSpacing=8;targetPerimeterSpacing=8;strokeColor=#1A1A1A;endFill=0;fontColor=#000000;align=center;entryX=0.5;entryY=0;entryDx=0;entryDy=0;exitX=0.5;exitY=1;exitDx=0;exitDy=0;" parent="1" source="6UiGl61B0s6jCJvGBx9i-228" edge="1">
          <mxGeometry relative="1" as="geometry">
            <mxPoint x="616.1099999999999" y="147.68" as="sourcePoint" />
            <mxPoint x="734.9499999999998" y="119.43999999999994" as="targetPoint" />
          </mxGeometry>
        </mxCell>
        <mxCell id="6UiGl61B0s6jCJvGBx9i-230" value="changedAt" style="text;strokeColor=none;fillColor=none;html=1;align=center;verticalAlign=middle;whiteSpace=wrap;rounded=0;fontColor=#000000;" parent="1" vertex="1">
          <mxGeometry x="713.7599999999998" y="60.76" width="42.38" height="9.12" as="geometry" />
        </mxCell>
        <mxCell id="6UiGl61B0s6jCJvGBx9i-233" value="" style="ellipse;whiteSpace=wrap;html=1;align=left;strokeColor=#1A1A1A;fillColor=#f5f5f5;fontColor=#333333;" parent="1" vertex="1">
          <mxGeometry x="771.95" y="106.36000000000001" width="10" height="10" as="geometry" />
        </mxCell>
        <mxCell id="6UiGl61B0s6jCJvGBx9i-234" style="edgeStyle=none;curved=1;rounded=0;orthogonalLoop=1;jettySize=auto;html=1;endArrow=none;startSize=14;endSize=14;sourcePerimeterSpacing=8;targetPerimeterSpacing=8;strokeColor=#1A1A1A;endFill=0;fontColor=#000000;align=center;entryX=1;entryY=0;entryDx=0;entryDy=0;exitX=0;exitY=1;exitDx=0;exitDy=0;" parent="1" source="6UiGl61B0s6jCJvGBx9i-233" target="6UiGl61B0s6jCJvGBx9i-161" edge="1">
          <mxGeometry relative="1" as="geometry">
            <mxPoint x="776.9199999999998" y="106.80000000000001" as="sourcePoint" />
            <mxPoint x="747.71" y="127" as="targetPoint" />
          </mxGeometry>
        </mxCell>
        <mxCell id="6UiGl61B0s6jCJvGBx9i-235" value="ticketId" style="text;strokeColor=none;fillColor=none;html=1;align=center;verticalAlign=middle;whiteSpace=wrap;rounded=0;fontColor=#000000;" parent="1" vertex="1">
          <mxGeometry x="755.76" y="91.80000000000001" width="42.38" height="9.12" as="geometry" />
        </mxCell>
        <mxCell id="6UiGl61B0s6jCJvGBx9i-236" value="" style="ellipse;whiteSpace=wrap;html=1;align=left;strokeColor=#1A1A1A;fillColor=#f5f5f5;fontColor=#333333;" parent="1" vertex="1">
          <mxGeometry x="687.95" y="107.36000000000001" width="10" height="10" as="geometry" />
        </mxCell>
        <mxCell id="6UiGl61B0s6jCJvGBx9i-237" style="edgeStyle=none;curved=1;rounded=0;orthogonalLoop=1;jettySize=auto;html=1;endArrow=none;startSize=14;endSize=14;sourcePerimeterSpacing=8;targetPerimeterSpacing=8;strokeColor=#1A1A1A;endFill=0;fontColor=#000000;align=center;exitX=1;exitY=1;exitDx=0;exitDy=0;entryX=0;entryY=0;entryDx=0;entryDy=0;" parent="1" source="6UiGl61B0s6jCJvGBx9i-236" target="6UiGl61B0s6jCJvGBx9i-161" edge="1">
          <mxGeometry relative="1" as="geometry">
            <mxPoint x="694.1099999999998" y="108.53000000000003" as="sourcePoint" />
            <mxPoint x="721.05" y="129" as="targetPoint" />
          </mxGeometry>
        </mxCell>
        <mxCell id="6UiGl61B0s6jCJvGBx9i-238" value="statusId" style="text;strokeColor=none;fillColor=none;html=1;align=center;verticalAlign=middle;whiteSpace=wrap;rounded=0;fontColor=#000000;" parent="1" vertex="1">
          <mxGeometry x="671.76" y="92.80000000000001" width="42.38" height="9.12" as="geometry" />
        </mxCell>
        <mxCell id="6UiGl61B0s6jCJvGBx9i-239" style="edgeStyle=orthogonalEdgeStyle;rounded=0;orthogonalLoop=1;jettySize=auto;html=1;exitX=1;exitY=0.25;exitDx=0;exitDy=0;entryX=1;entryY=0.5;entryDx=0;entryDy=0;fontColor=#1A1A1A;endArrow=none;endFill=0;strokeColor=#1A1A1A;" parent="1" source="6UiGl61B0s6jCJvGBx9i-22" target="6UiGl61B0s6jCJvGBx9i-169" edge="1">
          <mxGeometry relative="1" as="geometry">
            <mxPoint x="1092" y="181" as="sourcePoint" />
            <mxPoint x="1285" y="99" as="targetPoint" />
            <Array as="points">
              <mxPoint x="1006" y="120" />
              <mxPoint x="1141" y="120" />
              <mxPoint x="1141" y="-200" />
              <mxPoint x="1140" y="-200" />
              <mxPoint x="1140" y="-262" />
            </Array>
          </mxGeometry>
        </mxCell>
        <mxCell id="6UiGl61B0s6jCJvGBx9i-265" value="&lt;font color=&quot;#1a1a1a&quot;&gt;&lt;span style=&quot;font-size: 10px;&quot;&gt;ASSIGNED TO&lt;/span&gt;&lt;/font&gt;" style="rhombus;whiteSpace=wrap;html=1;fillColor=#FFFFFF;strokeColor=#1A1A1A;" parent="1" vertex="1">
          <mxGeometry x="880.5900000000003" y="-60.00000000000002" width="80" height="80" as="geometry" />
        </mxCell>
        <mxCell id="6UiGl61B0s6jCJvGBx9i-267" value="" style="ellipse;whiteSpace=wrap;html=1;align=left;strokeColor=#1A1A1A;fillColor=#f5f5f5;fontColor=#333333;" parent="1" vertex="1">
          <mxGeometry x="638.05" y="-287.64" width="10" height="10" as="geometry" />
        </mxCell>
        <mxCell id="6UiGl61B0s6jCJvGBx9i-268" style="rounded=0;orthogonalLoop=1;jettySize=auto;html=1;entryX=0;entryY=0;entryDx=0;entryDy=0;endArrow=none;endFill=0;strokeColor=#1A1A1A;exitX=1;exitY=1;exitDx=0;exitDy=0;" parent="1" source="6UiGl61B0s6jCJvGBx9i-267" target="6UiGl61B0s6jCJvGBx9i-35" edge="1">
          <mxGeometry relative="1" as="geometry">
            <mxPoint x="898" y="-269" as="sourcePoint" />
            <mxPoint x="860" y="-240" as="targetPoint" />
          </mxGeometry>
        </mxCell>
        <mxCell id="6UiGl61B0s6jCJvGBx9i-269" value="password" style="text;strokeColor=none;fillColor=none;html=1;align=center;verticalAlign=middle;whiteSpace=wrap;rounded=0;fontColor=#000000;" parent="1" vertex="1">
          <mxGeometry x="621.3799999999999" y="-299.71" width="42.38" height="9.12" as="geometry" />
        </mxCell>
        <mxCell id="6UiGl61B0s6jCJvGBx9i-270" style="rounded=0;orthogonalLoop=1;jettySize=auto;html=1;entryX=0.5;entryY=0;entryDx=0;entryDy=0;strokeColor=#1A1A1A;endArrow=none;endFill=0;exitX=1;exitY=0.75;exitDx=0;exitDy=0;edgeStyle=orthogonalEdgeStyle;" parent="1" source="6UiGl61B0s6jCJvGBx9i-35" target="6UiGl61B0s6jCJvGBx9i-265" edge="1">
          <mxGeometry relative="1" as="geometry">
            <mxPoint x="860" y="-190" as="sourcePoint" />
            <mxPoint x="971" y="-190" as="targetPoint" />
          </mxGeometry>
        </mxCell>
        <mxCell id="6UiGl61B0s6jCJvGBx9i-271" style="rounded=0;orthogonalLoop=1;jettySize=auto;html=1;entryX=0.5;entryY=1;entryDx=0;entryDy=0;strokeColor=#1A1A1A;endArrow=none;endFill=0;exitX=0.464;exitY=0.001;exitDx=0;exitDy=0;exitPerimeter=0;" parent="1" source="6UiGl61B0s6jCJvGBx9i-22" target="6UiGl61B0s6jCJvGBx9i-265" edge="1">
          <mxGeometry relative="1" as="geometry">
            <mxPoint x="870" y="-180" as="sourcePoint" />
            <mxPoint x="981" y="-180" as="targetPoint" />
          </mxGeometry>
        </mxCell>
        <mxCell id="6UiGl61B0s6jCJvGBx9i-272" value="" style="ellipse;whiteSpace=wrap;html=1;align=left;strokeColor=#1A1A1A;" parent="1" vertex="1">
          <mxGeometry x="836.26" y="-25.28000000000005" width="10" height="10" as="geometry" />
        </mxCell>
        <mxCell id="6UiGl61B0s6jCJvGBx9i-273" style="edgeStyle=none;curved=1;rounded=0;orthogonalLoop=1;jettySize=auto;html=1;endArrow=none;startSize=14;endSize=14;sourcePerimeterSpacing=8;targetPerimeterSpacing=8;strokeColor=#000000;endFill=0;fontColor=#000000;align=center;exitX=1;exitY=0.5;exitDx=0;exitDy=0;entryX=0;entryY=0.5;entryDx=0;entryDy=0;" parent="1" source="6UiGl61B0s6jCJvGBx9i-272" target="6UiGl61B0s6jCJvGBx9i-265" edge="1">
          <mxGeometry relative="1" as="geometry">
            <mxPoint x="813" y="-87" as="sourcePoint" />
            <mxPoint x="880" y="-20" as="targetPoint" />
          </mxGeometry>
        </mxCell>
        <mxCell id="6UiGl61B0s6jCJvGBx9i-275" value="id" style="text;strokeColor=none;fillColor=none;html=1;align=right;verticalAlign=middle;whiteSpace=wrap;rounded=0;fontColor=#000000;" parent="1" vertex="1">
          <mxGeometry x="792.2600000000001" y="-69.12000000000005" width="42.38" height="9.12" as="geometry" />
        </mxCell>
        <mxCell id="6UiGl61B0s6jCJvGBx9i-276" value="id" style="text;strokeColor=none;fillColor=none;html=1;align=right;verticalAlign=middle;whiteSpace=wrap;rounded=0;fontColor=#000000;" parent="1" vertex="1">
          <mxGeometry x="792.2600000000001" y="-25.880000000000045" width="42.38" height="9.12" as="geometry" />
        </mxCell>
        <mxCell id="6UiGl61B0s6jCJvGBx9i-277" value="" style="ellipse;whiteSpace=wrap;html=1;align=left;strokeColor=#1A1A1A;fillColor=#f5f5f5;fontColor=#333333;" parent="1" vertex="1">
          <mxGeometry x="995.67" y="-25.279999999999973" width="10" height="10" as="geometry" />
        </mxCell>
        <mxCell id="6UiGl61B0s6jCJvGBx9i-278" style="edgeStyle=none;curved=1;rounded=0;orthogonalLoop=1;jettySize=auto;html=1;endArrow=none;startSize=14;endSize=14;sourcePerimeterSpacing=8;targetPerimeterSpacing=8;strokeColor=#1A1A1A;endFill=0;fontColor=#000000;align=center;entryX=1;entryY=0.5;entryDx=0;entryDy=0;exitX=0;exitY=0.5;exitDx=0;exitDy=0;" parent="1" source="6UiGl61B0s6jCJvGBx9i-277" target="6UiGl61B0s6jCJvGBx9i-265" edge="1">
          <mxGeometry relative="1" as="geometry">
            <mxPoint x="1007.3399999999998" y="-24.839999999999975" as="sourcePoint" />
            <mxPoint x="985.42" y="7.360000000000014" as="targetPoint" />
          </mxGeometry>
        </mxCell>
        <mxCell id="6UiGl61B0s6jCJvGBx9i-279" value="assignedAt" style="text;strokeColor=none;fillColor=none;html=1;align=center;verticalAlign=middle;whiteSpace=wrap;rounded=0;fontColor=#000000;" parent="1" vertex="1">
          <mxGeometry x="1021.8599999999999" y="-25.879999999999974" width="42.38" height="9.12" as="geometry" />
        </mxCell>
        <mxCell id="6UiGl61B0s6jCJvGBx9i-280" value="" style="ellipse;whiteSpace=wrap;html=1;align=left;strokeColor=#1A1A1A;fillColor=#f5f5f5;fontColor=#333333;" parent="1" vertex="1">
          <mxGeometry x="958.5600000000001" y="-69.11999999999998" width="10" height="10" as="geometry" />
        </mxCell>
        <mxCell id="6UiGl61B0s6jCJvGBx9i-281" style="edgeStyle=none;curved=1;rounded=0;orthogonalLoop=1;jettySize=auto;html=1;endArrow=none;startSize=14;endSize=14;sourcePerimeterSpacing=8;targetPerimeterSpacing=8;strokeColor=#1A1A1A;endFill=0;fontColor=#000000;align=center;entryX=1;entryY=0;entryDx=0;entryDy=0;exitX=0;exitY=1;exitDx=0;exitDy=0;" parent="1" source="6UiGl61B0s6jCJvGBx9i-280" target="6UiGl61B0s6jCJvGBx9i-265" edge="1">
          <mxGeometry relative="1" as="geometry">
            <mxPoint x="974.4599999999998" y="-64.11999999999998" as="sourcePoint" />
            <mxPoint x="945.25" y="-43.91999999999999" as="targetPoint" />
          </mxGeometry>
        </mxCell>
        <mxCell id="6UiGl61B0s6jCJvGBx9i-282" value="agentId" style="text;strokeColor=none;fillColor=none;html=1;align=center;verticalAlign=middle;whiteSpace=wrap;rounded=0;fontColor=#000000;" parent="1" vertex="1">
          <mxGeometry x="972.57" y="-68.67999999999998" width="42.38" height="9.12" as="geometry" />
        </mxCell>
        <mxCell id="6UiGl61B0s6jCJvGBx9i-283" value="" style="ellipse;whiteSpace=wrap;html=1;align=left;strokeColor=#1A1A1A;fillColor=#f5f5f5;fontColor=#333333;" parent="1" vertex="1">
          <mxGeometry x="870" y="18.680000000000042" width="10" height="10" as="geometry" />
        </mxCell>
        <mxCell id="6UiGl61B0s6jCJvGBx9i-284" style="edgeStyle=none;curved=1;rounded=0;orthogonalLoop=1;jettySize=auto;html=1;endArrow=none;startSize=14;endSize=14;sourcePerimeterSpacing=8;targetPerimeterSpacing=8;strokeColor=#1A1A1A;endFill=0;fontColor=#000000;align=center;entryX=0;entryY=1;entryDx=0;entryDy=0;exitX=1;exitY=0;exitDx=0;exitDy=0;" parent="1" source="6UiGl61B0s6jCJvGBx9i-283" target="6UiGl61B0s6jCJvGBx9i-265" edge="1">
          <mxGeometry relative="1" as="geometry">
            <mxPoint x="845.5099999999998" y="13.09000000000006" as="sourcePoint" />
            <mxPoint x="889.11" y="6.3300000000000125" as="targetPoint" />
          </mxGeometry>
        </mxCell>
        <mxCell id="6UiGl61B0s6jCJvGBx9i-285" value="ticketId" style="text;strokeColor=none;fillColor=none;html=1;align=right;verticalAlign=middle;whiteSpace=wrap;rounded=0;fontColor=#000000;" parent="1" vertex="1">
          <mxGeometry x="824.64" y="20.000000000000043" width="42.38" height="9.12" as="geometry" />
        </mxCell>
        <mxCell id="4lUT4WymGG-tnzOa8VI8-2" value="1..N" style="text;strokeColor=none;fillColor=none;html=1;align=center;verticalAlign=middle;whiteSpace=wrap;rounded=0;fontColor=#000000;" parent="1" vertex="1">
          <mxGeometry x="851.14" y="-220" width="42.38" height="18.15" as="geometry" />
        </mxCell>
        <mxCell id="4lUT4WymGG-tnzOa8VI8-3" value="1..1" style="text;strokeColor=none;fillColor=none;html=1;align=center;verticalAlign=middle;whiteSpace=wrap;rounded=0;fontColor=#000000;" parent="1" vertex="1">
          <mxGeometry x="648.05" y="-220" width="42.38" height="18.15" as="geometry" />
        </mxCell>
        <mxCell id="4lUT4WymGG-tnzOa8VI8-5" value="&lt;font style=&quot;font-size: 10px;&quot; color=&quot;#1a1a1a&quot;&gt;HAS&lt;/font&gt;" style="rhombus;whiteSpace=wrap;html=1;fillColor=#FFFFFF;strokeColor=#1A1A1A;" parent="1" vertex="1">
          <mxGeometry x="563.0500000000001" y="-129.88" width="80" height="80" as="geometry" />
        </mxCell>
        <mxCell id="4lUT4WymGG-tnzOa8VI8-6" style="edgeStyle=orthogonalEdgeStyle;rounded=0;orthogonalLoop=1;jettySize=auto;html=1;entryX=0.5;entryY=1;entryDx=0;entryDy=0;strokeColor=#1A1A1A;endArrow=none;endFill=0;exitX=1;exitY=0.5;exitDx=0;exitDy=0;" parent="1" source="6UiGl61B0s6jCJvGBx9i-38" target="4lUT4WymGG-tnzOa8VI8-5" edge="1">
          <mxGeometry relative="1" as="geometry">
            <mxPoint x="613" y="-120" as="sourcePoint" />
            <mxPoint x="700" y="-190" as="targetPoint" />
            <Array as="points">
              <mxPoint x="540" y="-31" />
              <mxPoint x="603" y="-31" />
            </Array>
          </mxGeometry>
        </mxCell>
        <mxCell id="4lUT4WymGG-tnzOa8VI8-7" value="&lt;font color=&quot;#1a1a1a&quot;&gt;&lt;span style=&quot;font-size: 10px;&quot;&gt;HAS&lt;/span&gt;&lt;/font&gt;" style="rhombus;whiteSpace=wrap;html=1;fillColor=#FFFFFF;strokeColor=#1A1A1A;" parent="1" vertex="1">
          <mxGeometry x="1100.9000000000003" y="-112.64000000000001" width="80" height="80" as="geometry" />
        </mxCell>
        <mxCell id="4lUT4WymGG-tnzOa8VI8-11" value="" style="edgeStyle=orthogonalEdgeStyle;rounded=0;orthogonalLoop=1;jettySize=auto;html=1;exitX=1;exitY=0.5;exitDx=0;exitDy=0;entryX=0;entryY=0.5;entryDx=0;entryDy=0;fontColor=#1A1A1A;endArrow=none;endFill=0;strokeColor=#1A1A1A;" parent="1" source="6UiGl61B0s6jCJvGBx9i-22" target="4lUT4WymGG-tnzOa8VI8-8" edge="1">
          <mxGeometry relative="1" as="geometry">
            <Array as="points" />
            <mxPoint x="1006" y="159" as="sourcePoint" />
            <mxPoint x="1203" y="89" as="targetPoint" />
          </mxGeometry>
        </mxCell>
        <mxCell id="4lUT4WymGG-tnzOa8VI8-8" value="&lt;font color=&quot;#1a1a1a&quot;&gt;&lt;span style=&quot;font-size: 10px;&quot;&gt;HAS&lt;/span&gt;&lt;/font&gt;" style="rhombus;whiteSpace=wrap;html=1;fillColor=#FFFFFF;strokeColor=#1A1A1A;" parent="1" vertex="1">
          <mxGeometry x="1078.51" y="136.23999999999998" width="46.41" height="46.41" as="geometry" />
        </mxCell>
        <mxCell id="4lUT4WymGG-tnzOa8VI8-14" value="&lt;font color=&quot;#1a1a1a&quot;&gt;&lt;span style=&quot;font-size: 10px;&quot;&gt;HAS&lt;/span&gt;&lt;/font&gt;" style="rhombus;whiteSpace=wrap;html=1;fillColor=#FFFFFF;strokeColor=#1A1A1A;" parent="1" vertex="1">
          <mxGeometry x="1050" y="179.35999999999996" width="46.41" height="46.41" as="geometry" />
        </mxCell>
        <mxCell id="4lUT4WymGG-tnzOa8VI8-18" value="" style="edgeStyle=orthogonalEdgeStyle;rounded=0;orthogonalLoop=1;jettySize=auto;html=1;exitX=1.001;exitY=0.943;exitDx=0;exitDy=0;entryX=0;entryY=0.5;entryDx=0;entryDy=0;fontColor=#1A1A1A;endArrow=none;endFill=0;strokeColor=#1A1A1A;exitPerimeter=0;" parent="1" source="6UiGl61B0s6jCJvGBx9i-22" target="4lUT4WymGG-tnzOa8VI8-14" edge="1">
          <mxGeometry relative="1" as="geometry">
            <Array as="points" />
            <mxPoint x="1016" y="169" as="sourcePoint" />
            <mxPoint x="1089" y="169" as="targetPoint" />
          </mxGeometry>
        </mxCell>
        <mxCell id="4lUT4WymGG-tnzOa8VI8-19" value="" style="edgeStyle=orthogonalEdgeStyle;rounded=0;orthogonalLoop=1;jettySize=auto;html=1;exitX=0.003;exitY=0.326;exitDx=0;exitDy=0;entryX=1;entryY=0.5;entryDx=0;entryDy=0;fontColor=#1A1A1A;endArrow=none;endFill=0;strokeColor=#1A1A1A;exitPerimeter=0;" parent="1" source="8G4y-F73RXwa5Z3J1X30-61" target="4lUT4WymGG-tnzOa8VI8-14" edge="1">
          <mxGeometry relative="1" as="geometry">
            <Array as="points" />
            <mxPoint x="1016" y="213" as="sourcePoint" />
            <mxPoint x="1042" y="213" as="targetPoint" />
          </mxGeometry>
        </mxCell>
        <mxCell id="4lUT4WymGG-tnzOa8VI8-21" value="" style="rounded=0;orthogonalLoop=1;jettySize=auto;html=1;strokeColor=#1A1A1A;endArrow=none;endFill=0;" parent="1" edge="1">
          <mxGeometry relative="1" as="geometry">
            <mxPoint x="850" y="-200" as="sourcePoint" />
            <mxPoint x="910" y="-200" as="targetPoint" />
            <Array as="points" />
          </mxGeometry>
        </mxCell>
        <mxCell id="4lUT4WymGG-tnzOa8VI8-20" value="&lt;font color=&quot;#1a1a1a&quot;&gt;&lt;span style=&quot;font-size: 10px;&quot;&gt;HAS&lt;/span&gt;&lt;/font&gt;" style="rhombus;whiteSpace=wrap;html=1;fillColor=#FFFFFF;strokeColor=#1A1A1A;" parent="1" vertex="1">
          <mxGeometry x="887.4499999999999" y="-253.96000000000004" width="46.41" height="46.41" as="geometry" />
        </mxCell>
        <mxCell id="4lUT4WymGG-tnzOa8VI8-22" value="1..1" style="text;strokeColor=none;fillColor=none;html=1;align=center;verticalAlign=middle;whiteSpace=wrap;rounded=0;fontColor=#000000;" parent="1" vertex="1">
          <mxGeometry x="918.21" y="-278.64" width="42.38" height="18.15" as="geometry" />
        </mxCell>
        <mxCell id="4lUT4WymGG-tnzOa8VI8-23" value="1..N" style="text;strokeColor=none;fillColor=none;html=1;align=center;verticalAlign=middle;whiteSpace=wrap;rounded=0;fontColor=#000000;" parent="1" vertex="1">
          <mxGeometry x="867.02" y="-258.04" width="42.38" height="18.15" as="geometry" />
        </mxCell>
        <mxCell id="4lUT4WymGG-tnzOa8VI8-24" value="0..N" style="text;strokeColor=none;fillColor=none;html=1;align=center;verticalAlign=middle;whiteSpace=wrap;rounded=0;fontColor=#000000;" parent="1" vertex="1">
          <mxGeometry x="520.43" y="-50.78999999999999" width="42.38" height="18.15" as="geometry" />
        </mxCell>
        <mxCell id="4lUT4WymGG-tnzOa8VI8-25" value="0..N" style="text;strokeColor=none;fillColor=none;html=1;align=center;verticalAlign=middle;whiteSpace=wrap;rounded=0;fontColor=#000000;" parent="1" vertex="1">
          <mxGeometry x="800.24" y="138.68" width="42.38" height="18.15" as="geometry" />
        </mxCell>
        <mxCell id="4lUT4WymGG-tnzOa8VI8-26" value="0..N" style="text;strokeColor=none;fillColor=none;html=1;align=center;verticalAlign=middle;whiteSpace=wrap;rounded=0;fontColor=#000000;" parent="1" vertex="1">
          <mxGeometry x="638.0500000000001" y="142.61" width="42.38" height="18.15" as="geometry" />
        </mxCell>
        <mxCell id="4lUT4WymGG-tnzOa8VI8-29" value="0..N" style="text;strokeColor=none;fillColor=none;html=1;align=center;verticalAlign=middle;whiteSpace=wrap;rounded=0;fontColor=#000000;" parent="1" vertex="1">
          <mxGeometry x="749.88" y="189.41" width="42.38" height="18.15" as="geometry" />
        </mxCell>
        <mxCell id="4lUT4WymGG-tnzOa8VI8-30" value="0..N" style="text;strokeColor=none;fillColor=none;html=1;align=center;verticalAlign=middle;whiteSpace=wrap;rounded=0;fontColor=#000000;" parent="1" vertex="1">
          <mxGeometry x="1152.57" y="67.68" width="42.38" height="18.15" as="geometry" />
        </mxCell>
        <mxCell id="4lUT4WymGG-tnzOa8VI8-31" value="0..N" style="text;strokeColor=none;fillColor=none;html=1;align=center;verticalAlign=middle;whiteSpace=wrap;rounded=0;fontColor=#000000;" parent="1" vertex="1">
          <mxGeometry x="1005.67" y="138.68" width="42.38" height="18.15" as="geometry" />
        </mxCell>
        <mxCell id="4lUT4WymGG-tnzOa8VI8-32" value="0..N" style="text;strokeColor=none;fillColor=none;html=1;align=center;verticalAlign=middle;whiteSpace=wrap;rounded=0;fontColor=#000000;" parent="1" vertex="1">
          <mxGeometry x="1110.8999999999999" y="161.21" width="42.38" height="18.15" as="geometry" />
        </mxCell>
        <mxCell id="4lUT4WymGG-tnzOa8VI8-33" value="0..N" style="text;strokeColor=none;fillColor=none;html=1;align=center;verticalAlign=middle;whiteSpace=wrap;rounded=0;fontColor=#000000;" parent="1" vertex="1">
          <mxGeometry x="1161.3799999999999" y="211.36" width="42.38" height="18.15" as="geometry" />
        </mxCell>
        <mxCell id="4lUT4WymGG-tnzOa8VI8-34" value="0..N" style="text;strokeColor=none;fillColor=none;html=1;align=center;verticalAlign=middle;whiteSpace=wrap;rounded=0;fontColor=#000000;" parent="1" vertex="1">
          <mxGeometry x="1005.6699999999998" y="179.41000000000003" width="42.38" height="18.15" as="geometry" />
        </mxCell>
        <mxCell id="4lUT4WymGG-tnzOa8VI8-35" value="0..N" style="text;strokeColor=none;fillColor=none;html=1;align=center;verticalAlign=middle;whiteSpace=wrap;rounded=0;fontColor=#000000;" parent="1" vertex="1">
          <mxGeometry x="1068.5199999999998" y="221.41000000000003" width="42.38" height="18.15" as="geometry" />
        </mxCell>
        <mxCell id="4lUT4WymGG-tnzOa8VI8-36" value="0..*" style="text;strokeColor=none;fillColor=none;html=1;align=center;verticalAlign=middle;whiteSpace=wrap;rounded=0;fontColor=#000000;" parent="1" vertex="1">
          <mxGeometry x="1011.86" y="98.21000000000001" width="42.38" height="18.15" as="geometry" />
        </mxCell>
        <mxCell id="4lUT4WymGG-tnzOa8VI8-37" value="1..N" style="text;strokeColor=none;fillColor=none;html=1;align=center;verticalAlign=middle;whiteSpace=wrap;rounded=0;fontColor=#000000;" parent="1" vertex="1">
          <mxGeometry x="1161.38" y="-109.55999999999999" width="42.38" height="18.15" as="geometry" />
        </mxCell>
        <mxCell id="4lUT4WymGG-tnzOa8VI8-38" value="1..1" style="text;strokeColor=none;fillColor=none;html=1;align=center;verticalAlign=middle;whiteSpace=wrap;rounded=0;fontColor=#000000;" parent="1" vertex="1">
          <mxGeometry x="1127.09" y="-280.88" width="42.38" height="18.15" as="geometry" />
        </mxCell>
        <mxCell id="4lUT4WymGG-tnzOa8VI8-39" value="1..N" style="text;strokeColor=none;fillColor=none;html=1;align=center;verticalAlign=middle;whiteSpace=wrap;rounded=0;fontColor=#000000;" parent="1" vertex="1">
          <mxGeometry x="853.8800000000001" y="-168.58999999999997" width="42.38" height="18.15" as="geometry" />
        </mxCell>
        <mxCell id="4lUT4WymGG-tnzOa8VI8-40" value="0..1" style="text;strokeColor=none;fillColor=none;html=1;align=center;verticalAlign=middle;whiteSpace=wrap;rounded=0;fontColor=#000000;" parent="1" vertex="1">
          <mxGeometry x="923.9900000000001" y="56.24000000000004" width="42.38" height="18.15" as="geometry" />
        </mxCell>
        <mxCell id="4lUT4WymGG-tnzOa8VI8-41" value="N..M" style="text;strokeColor=none;fillColor=none;html=1;align=center;verticalAlign=middle;whiteSpace=wrap;rounded=0;fontColor=#000000;" parent="1" vertex="1">
          <mxGeometry x="867.0200000000001" y="-59.11999999999996" width="42.38" height="18.15" as="geometry" />
        </mxCell>
        <mxCell id="4lUT4WymGG-tnzOa8VI8-42" value="0..N" style="text;strokeColor=none;fillColor=none;html=1;align=center;verticalAlign=middle;whiteSpace=wrap;rounded=0;fontColor=#000000;" parent="1" vertex="1">
          <mxGeometry x="297.61999999999995" y="-233.85" width="42.38" height="18.15" as="geometry" />
        </mxCell>
        <mxCell id="4lUT4WymGG-tnzOa8VI8-43" value="1..N" style="text;strokeColor=none;fillColor=none;html=1;align=center;verticalAlign=middle;whiteSpace=wrap;rounded=0;fontColor=#000000;" parent="1" vertex="1">
          <mxGeometry x="315.23999999999995" y="-59.11999999999999" width="42.38" height="18.15" as="geometry" />
        </mxCell>
        <mxCell id="4lUT4WymGG-tnzOa8VI8-44" value="1..N" style="text;strokeColor=none;fillColor=none;html=1;align=center;verticalAlign=middle;whiteSpace=wrap;rounded=0;fontColor=#000000;" parent="1" vertex="1">
          <mxGeometry x="193.09999999999997" y="38.09" width="42.38" height="18.15" as="geometry" />
        </mxCell>
        <mxCell id="4lUT4WymGG-tnzOa8VI8-45" value="N..M" style="text;strokeColor=none;fillColor=none;html=1;align=center;verticalAlign=middle;whiteSpace=wrap;rounded=0;fontColor=#000000;" parent="1" vertex="1">
          <mxGeometry x="176.90999999999994" y="-68.03" width="42.38" height="18.15" as="geometry" />
        </mxCell>
        <mxCell id="4lUT4WymGG-tnzOa8VI8-46" value="1..N" style="text;strokeColor=none;fillColor=none;html=1;align=center;verticalAlign=middle;whiteSpace=wrap;rounded=0;fontColor=#000000;" parent="1" vertex="1">
          <mxGeometry x="621.86" y="-123.53999999999999" width="42.38" height="18.15" as="geometry" />
        </mxCell>
        <mxCell id="4lUT4WymGG-tnzOa8VI8-47" value="1..N" style="text;strokeColor=none;fillColor=none;html=1;align=center;verticalAlign=middle;whiteSpace=wrap;rounded=0;fontColor=#000000;" parent="1" vertex="1">
          <mxGeometry x="436.42999999999995" y="-290.59" width="42.38" height="18.15" as="geometry" />
        </mxCell>
      </root>
    </mxGraphModel>
  </diagram>
</mxfile>
